<svg xmlns="http://www.w3.org/2000/svg" width="512" height="452" viewBox="0 0 512 452">
  <g id="bottom-top" transform="translate(2123 -15939)">
    <g id="Group_250" data-name="Group 250" transform="translate(-2123 15909)">
      <g id="Group_249" data-name="Group 249">
        <g id="Group_248" data-name="Group 248">
          <path id="Path_924" data-name="Path 924" d="M376,30c-27.783,0-53.255,8.8-75.707,26.168C278.768,72.815,264.437,94.018,256,109.436c-8.437-15.419-22.768-36.621-44.293-53.268C189.255,38.8,163.783,30,136,30,58.468,30,0,93.417,0,177.514c0,90.854,72.943,153.015,183.369,247.118,18.752,15.981,40.007,34.1,62.1,53.414a16.005,16.005,0,0,0,21.064,0c22.094-19.322,43.348-37.435,62.111-53.425C439.057,330.529,512,268.368,512,177.514,512,93.417,453.532,30,376,30Z" fill="#c75173"/>
        </g>
      </g>
    </g>
    <g id="Group_251" data-name="Group 251" transform="translate(-2051.622 16319.379) rotate(-90)">
      <path id="Path_925" data-name="Path 925" d="M254.4,195.656l-57.385,57.385a16.2,16.2,0,1,1-22.906-22.905L203.845,200.4H16.2a16.2,16.2,0,0,1,0-32.393H203.845l-29.736-29.736a16.2,16.2,0,0,1,22.906-22.905L254.4,172.751A16.2,16.2,0,0,1,254.4,195.656Z" transform="translate(0 0)" fill="#fff"/>
    </g>
  </g>
</svg>
