<svg xmlns="http://www.w3.org/2000/svg" width="42.578" height="50.894" viewBox="0 0 42.578 50.894">
  <g id="cafe" transform="translate(-1.5 0.5)">
    <path id="Path_33" data-name="Path 33" d="M30.238,42.342H11.025a5.206,5.206,0,0,1-5.187-4.873L4,8.1A1.037,1.037,0,0,1,4.975,7a1.014,1.014,0,0,1,1.1.973L7.913,37.34a3.124,3.124,0,0,0,3.112,2.923H30.238A3.124,3.124,0,0,0,33.35,37.34L35.186,7.975A1.01,1.01,0,0,1,36.288,7a1.04,1.04,0,0,1,.973,1.1L35.425,37.469a5.206,5.206,0,0,1-5.187,4.873Z" transform="translate(2.158 7.552)" fill="#ed7e9e" stroke="#ed7e9e" stroke-width="1"/>
    <path id="Path_34" data-name="Path 34" d="M40.46,12.316H5.118A3.122,3.122,0,0,1,2,9.2V7.118A3.122,3.122,0,0,1,5.118,4H40.46a3.122,3.122,0,0,1,3.118,3.118V9.2A3.122,3.122,0,0,1,40.46,12.316ZM5.118,6.079A1.041,1.041,0,0,0,4.079,7.118V9.2a1.041,1.041,0,0,0,1.039,1.039H40.46A1.041,1.041,0,0,0,41.5,9.2V7.118A1.041,1.041,0,0,0,40.46,6.079Z" transform="translate(0 4.316)" fill="#ed7e9e" stroke="#ed7e9e" stroke-width="1"/>
    <path id="Path_35" data-name="Path 35" d="M36.223,10.395a1.036,1.036,0,0,1-1.008-.788L33.924,4.441A3.114,3.114,0,0,0,30.9,2.079H10.366A3.114,3.114,0,0,0,7.339,4.441L6.048,9.607a1.039,1.039,0,1,1-2.017-.5L5.322,3.937A5.191,5.191,0,0,1,10.366,0H30.9a5.2,5.2,0,0,1,5.043,3.937L37.233,9.1a1.042,1.042,0,0,1-.757,1.26,1.085,1.085,0,0,1-.254.031Z" transform="translate(2.158 0)" fill="#ed7e9e" stroke="#ed7e9e" stroke-width="1"/>
    <path id="Path_36" data-name="Path 36" d="M18.111,27.616a10.115,10.115,0,0,1-7-3.1C7.535,20.941,6.963,15.7,9.832,12.831s8.108-2.3,11.679,1.276,4.145,8.81,1.276,11.681A6.487,6.487,0,0,1,18.111,27.616ZM14.518,13.068A4.445,4.445,0,0,0,11.3,14.3c-2.058,2.058-1.484,5.979,1.276,8.742s6.682,3.332,8.74,1.276,1.484-5.979-1.276-8.742a8.065,8.065,0,0,0-5.524-2.511Z" transform="translate(6.479 11.873)" fill="#ed7e9e" stroke="#ed7e9e" stroke-width="1"/>
    <path id="Path_37" data-name="Path 37" d="M19.284,24.91a9.505,9.505,0,0,1-.216-1.549A3.81,3.81,0,0,0,17.96,20.53,3.872,3.872,0,0,0,15.1,19.418,5.866,5.866,0,0,1,9.212,13.53a8.432,8.432,0,0,0-.158-1.191l2.027-.474a10.532,10.532,0,0,1,.2,1.488,3.926,3.926,0,0,0,1.123,2.881,3.869,3.869,0,0,0,2.861,1.108,5.894,5.894,0,0,1,4.16,1.713,5.8,5.8,0,0,1,1.713,4.133,7.684,7.684,0,0,0,.164,1.218Z" transform="translate(7.611 12.801)" fill="#ed7e9e" stroke="#ed7e9e" stroke-width="1"/>
  </g>
</svg>
