<svg xmlns="http://www.w3.org/2000/svg" width="50" height="50.142" viewBox="0 0 50 50.142">
  <g id="calendar1" transform="translate(0 -0.022)">
    <g id="Group_254" data-name="Group 254" transform="translate(0 0.022)">
      <path id="Path_927" data-name="Path 927" d="M40.346,4.024H38.482V2.137a1.959,1.959,0,1,0-3.9,0V4.024H15.423V2.137a1.959,1.959,0,1,0-3.9,0V4.024H9.654A9.665,9.665,0,0,0,0,13.678V40.51a9.665,9.665,0,0,0,9.654,9.654H40.346A9.665,9.665,0,0,0,50,40.51V13.678a9.665,9.665,0,0,0-9.654-9.654ZM9.654,7.929h1.864v3.8a1.959,1.959,0,1,0,3.9,0v-3.8H34.577v3.8a1.959,1.959,0,1,0,3.9,0v-3.8h1.864A5.755,5.755,0,0,1,46.1,13.678v1.864H3.9V13.678A5.755,5.755,0,0,1,9.654,7.929ZM40.346,46.258H9.654A5.755,5.755,0,0,1,3.9,40.509V19.447H46.1V40.51a5.755,5.755,0,0,1-5.756,5.747Zm-23-19.131a1.959,1.959,0,0,1-1.959,1.959H11.55a1.959,1.959,0,0,1,0-3.9h3.841a1.959,1.959,0,0,1,1.951,1.946Zm23.059,0a1.959,1.959,0,0,1-1.959,1.959H34.609a1.959,1.959,0,0,1,0-3.9h3.839A1.959,1.959,0,0,1,40.4,27.126Zm-11.541,0A1.959,1.959,0,0,1,26.9,29.085H23.07a1.959,1.959,0,1,1,0-3.9h3.839a1.959,1.959,0,0,1,1.951,1.946ZM17.342,38.644A1.959,1.959,0,0,1,15.384,40.6H11.55a1.959,1.959,0,0,1,0-3.9h3.841A1.959,1.959,0,0,1,17.342,38.644Zm23.059,0A1.959,1.959,0,0,1,38.443,40.6H34.609a1.959,1.959,0,0,1,0-3.9h3.839A1.959,1.959,0,0,1,40.4,38.644Zm-11.541,0A1.959,1.959,0,0,1,26.9,40.6H23.07a1.959,1.959,0,1,1,0-3.9h3.839A1.959,1.959,0,0,1,28.86,38.644Z" transform="translate(0 -0.022)" fill="#ed7e9e"/>
    </g>
  </g>
</svg>
