<svg xmlns="http://www.w3.org/2000/svg" width="28.082" height="28.069" viewBox="0 0 28.082 28.069">
  <g id="calendar" transform="translate(0 -0.114)">
    <g id="Group_254" data-name="Group 254" transform="translate(0 0.114)">
      <path id="Path_927" data-name="Path 927" d="M22.66,2.27H21.613V1.21a1.1,1.1,0,1,0-2.193,0V2.27H8.662V1.21a1.1,1.1,0,1,0-2.193,0V2.27H5.422A5.428,5.428,0,0,0,0,7.692v15.07a5.428,5.428,0,0,0,5.422,5.422H22.66a5.428,5.428,0,0,0,5.422-5.422V7.692A5.428,5.428,0,0,0,22.66,2.27ZM5.422,4.463H6.469V6.6a1.1,1.1,0,1,0,2.193,0V4.463H19.42V6.6a1.1,1.1,0,1,0,2.193,0V4.463H22.66a3.232,3.232,0,0,1,3.229,3.229V8.739H2.193V7.692A3.232,3.232,0,0,1,5.422,4.463ZM22.66,25.99H5.422a3.232,3.232,0,0,1-3.229-3.229V10.932h23.7V22.762A3.232,3.232,0,0,1,22.66,25.99ZM9.74,15.245a1.1,1.1,0,0,1-1.1,1.1H6.487a1.1,1.1,0,0,1,0-2.193H8.644A1.1,1.1,0,0,1,9.74,15.245Zm12.951,0a1.1,1.1,0,0,1-1.1,1.1H19.438a1.1,1.1,0,0,1,0-2.193h2.156A1.1,1.1,0,0,1,22.691,15.245Zm-6.482,0a1.1,1.1,0,0,1-1.1,1.1H12.957a1.1,1.1,0,1,1,0-2.193h2.156A1.1,1.1,0,0,1,16.209,15.245ZM9.74,21.714a1.1,1.1,0,0,1-1.1,1.1H6.487a1.1,1.1,0,0,1,0-2.193H8.644A1.1,1.1,0,0,1,9.74,21.714Zm12.951,0a1.1,1.1,0,0,1-1.1,1.1H19.438a1.1,1.1,0,0,1,0-2.193h2.156A1.1,1.1,0,0,1,22.691,21.714Zm-6.482,0a1.1,1.1,0,0,1-1.1,1.1H12.957a1.1,1.1,0,1,1,0-2.193h2.156A1.1,1.1,0,0,1,16.209,21.714Z" transform="translate(0 -0.114)" fill="#ed7e9e"/>
    </g>
  </g>
</svg>
