<svg xmlns="http://www.w3.org/2000/svg" width="50" height="43.333" viewBox="0 0 50 43.333">
  <g id="camera" transform="translate(-1 -3)">
    <path id="Path_29" data-name="Path 29" d="M44.913,9.667H37.757l-.833-2.5A6.075,6.075,0,0,0,31.148,3h-10.3a6.077,6.077,0,0,0-5.773,4.167l-.835,2.5H7.087A6.093,6.093,0,0,0,1,15.753v24.5a6.093,6.093,0,0,0,6.087,6.08H44.92A6.093,6.093,0,0,0,51,40.247v-24.5a6.093,6.093,0,0,0-6.087-6.08Zm2.753,30.58A2.757,2.757,0,0,1,44.913,43H7.087a2.757,2.757,0,0,1-2.753-2.753v-24.5A2.757,2.757,0,0,1,7.087,13h8.358a1.667,1.667,0,0,0,1.58-1.14L18.24,8.215a2.75,2.75,0,0,1,2.612-1.882h10.3A2.748,2.748,0,0,1,33.76,8.217l1.215,3.643A1.667,1.667,0,0,0,36.555,13h8.358a2.757,2.757,0,0,1,2.753,2.753Z" transform="translate(0 0)" fill="#ed7e9e"/>
    <path id="Path_30" data-name="Path 30" d="M21.033,10A12.533,12.533,0,1,0,33.566,22.533,12.533,12.533,0,0,0,21.033,10Zm0,21.724a9.191,9.191,0,1,1,9.191-9.191,9.191,9.191,0,0,1-9.191,9.191Z" transform="translate(4.967 4.624)" fill="#ed7e9e"/>
    <ellipse id="Ellipse_15" data-name="Ellipse 15" cx="1.5" cy="2" rx="1.5" ry="2" transform="translate(40.867 15.962)" fill="#ed7e9e"/>
  </g>
</svg>
