<svg xmlns="http://www.w3.org/2000/svg" width="82.453" height="60.162" viewBox="0 0 82.453 60.162">
  <path id="content-heart" d="M82.806,17.629a21.915,21.915,0,0,1-5.238,10.935C72.22,34.909,64.391,39.045,56.561,41.141a4.258,4.258,0,0,1-.662.17c2.316,2.606,4.742,5.1,7.057,7.422.441.51-3.639,3.683-4.576,2.719C55.514,48.563,52.647,45.617,50,42.5c-8.1,1.3-16.375,1.36-24.425,2.946C17.25,47.033,9.31,50.489,4.9,58.251a6.077,6.077,0,0,1-3.032,2.1c-.386.17-1.819.567-1.268-.4,4.19-7.365,11.8-12.238,19.463-15.014,7.995-2.889,16.375-3.513,24.7-4.306q1.654-.17,3.363-.34a74.832,74.832,0,0,1-4.631-6.4c-5.238-8.5-10.862-25.325.055-31.9C45.479.8,47.96-.1,50.221.745c2.04.793,3.363,2.776,4.3,4.759a44.688,44.688,0,0,1,2.426,8.442q.937,3.966,1.93,7.932A78.413,78.413,0,0,1,65.6,13.719c2.922-3.116,7.664-7.252,12.24-6.062,4.245,1.076,5.514,6.006,4.962,9.971ZM44.321,3.238a1.817,1.817,0,0,1,.276-.227C44.542,3.011,44.431,3.068,44.321,3.238ZM77.292,13.663c-.937-1.7-2.7-3.229-4.687-3.173-1.93,0-3.529,2.436-4.742,3.8A73.3,73.3,0,0,0,59.539,25.73c-.276.51-4.19,3.173-4.411,2.21q-1.489-6.062-2.922-12.124c-.717-3-1.323-6.119-2.922-8.838a7.6,7.6,0,0,0-2.261-2.719,4.526,4.526,0,0,0-1.93-.793,2.668,2.668,0,0,0-.937-.057,25.617,25.617,0,0,0-1.6,3.739,22.917,22.917,0,0,0-.5,4.306c-.221,10.878,5.4,20.056,12.24,27.988a36.236,36.236,0,0,0,14.721-5.382A23.448,23.448,0,0,0,76.19,26.07c1.875-3.626,3.253-8.668,1.1-12.408Z" transform="translate(-0.474 -0.412)" fill="#ed7e9e" fill-rule="evenodd"/>
</svg>
