<svg xmlns="http://www.w3.org/2000/svg" width="14.179" height="8.937" viewBox="0 0 14.179 8.937">
  <g id="downarrow" transform="translate(17.706 -3.005) rotate(90)">
    <path id="Path_2" data-name="Path 2" d="M90.822,6.27,84.889.346a1.143,1.143,0,0,0-1.638,0l-.692.683a1.115,1.115,0,0,0-.337.819,1.165,1.165,0,0,0,.337.828l4.423,4.414-4.423,4.423a1.115,1.115,0,0,0-.337.819,1.165,1.165,0,0,0,.337.828l.692.683a1.165,1.165,0,0,0,1.638,0l5.933-5.924a1.165,1.165,0,0,0,.337-.828A1.115,1.115,0,0,0,90.822,6.27Z" transform="translate(-79.217 3.527)" fill="#707070"/>
  </g>
</svg>
