<svg xmlns="http://www.w3.org/2000/svg" width="80" height="80" viewBox="0 0 80 80">
  <g id="fall-circle" transform="translate(-920 -3300.5)">
    <g id="Ellipse_5" data-name="Ellipse 5" transform="translate(920 3300.5)" fill="#fff" stroke="#ed7e9e" stroke-width="2">
      <circle cx="40" cy="40" r="40" stroke="none"/>
      <circle cx="40" cy="40" r="39" fill="none"/>
    </g>
    <g id="Group_208" data-name="Group 208" transform="translate(968 3216.5)">
      <g id="Group_207" data-name="Group 207" transform="translate(-33 99.071)">
        <path id="Path_53" data-name="Path 53" d="M51.221,25.25,50.481,18.6a.74.74,0,0,0-.735-.658,3.1,3.1,0,0,0-2.373,1.043c-1.716,1.916-1.389,5.817-1.324,6.437v.718c-2.564.12-3.185.909-4.212,2.528a19.986,19.986,0,0,1-1.468,2.079l-3.9,2.671C36.01,33.769,32,36.965,32,39.427A19.746,19.746,0,0,0,32.525,44a7.094,7.094,0,0,1,.214,1.346V47.56a.739.739,0,0,0,1.479,0V45.342a8.092,8.092,0,0,0-.248-1.658,18.437,18.437,0,0,1-.492-4.258c0-1.316,2.391-3.671,3.861-4.82l3.951-2.7a.74.74,0,0,0,.153-.139,21.122,21.122,0,0,0,1.642-2.308c.8-1.268,1.1-1.734,2.8-1.837A23.642,23.642,0,0,1,44.69,31.6c-.478.461-2.387,2.31-3.617,3.62a.739.739,0,0,0,1.079,1.012c1.357-1.448,3.647-3.648,3.67-3.67a.744.744,0,0,0,.166-.237,25.229,25.229,0,0,0,1.528-5.407c.019-.207.016-1.563.009-1.625-.115-1.059-.169-4.081.952-5.33a1.606,1.606,0,0,1,.62-.44l.646,5.807c-.085.827-.735,7.178-.729,8.121a14.648,14.648,0,0,1-2.475,2.58c-2.524,2.327-5.665,5.223-5.665,7.829v3.7a.739.739,0,0,0,1.479,0v-3.7c0-1.959,3-4.723,5.188-6.741,1.99-1.834,2.946-2.754,2.946-3.611,0-.8.531-6.122.736-8.1a.748.748,0,0,0,0-.157Z" transform="translate(-6.775 -3.371)" fill="#ed7e9e"/>
        <path id="Path_54" data-name="Path 54" d="M20.72,33.387l-3.864-2.644a20.1,20.1,0,0,1-1.468-2.079c-1.027-1.619-1.648-2.408-4.212-2.528v-.718c.064-.62.392-4.521-1.324-6.437a3.1,3.1,0,0,0-2.373-1.043.739.739,0,0,0-.735.658L6,25.251a.748.748,0,0,0,0,.157c.2,1.981.736,7.3.736,8.1,0,.858.956,1.778,2.946,3.611,2.189,2.018,5.188,4.782,5.188,6.741v3.7a.739.739,0,1,0,1.479,0v-3.7c0-2.606-3.141-5.5-5.665-7.828a16.892,16.892,0,0,1-2.469-2.524c0-1-.65-7.351-.735-8.177l.646-5.807c1.858.716,1.568,4.618,1.568,5.851,0,.2-.005,1.511.01,1.6a26.54,26.54,0,0,0,1.531,5.349.725.725,0,0,0,.166.237c.023.022,2.312,2.222,3.67,3.67a.739.739,0,0,0,1.079-1.012c-1.23-1.311-3.139-3.16-3.617-3.62a23.642,23.642,0,0,1-1.195-3.984c1.7.1,1.995.569,2.8,1.837A17.155,17.155,0,0,0,15.934,31.9l3.914,2.677c1.508,1.173,3.9,3.527,3.9,4.846a18.436,18.436,0,0,1-.492,4.258,8.092,8.092,0,0,0-.248,1.658v2.218a.739.739,0,0,0,1.479,0V45.342A7.093,7.093,0,0,1,24.7,44a19.746,19.746,0,0,0,.525-4.57c0-2.462-4.01-5.657-4.5-6.04Z" transform="translate(0 -3.371)" fill="#ed7e9e"/>
        <path id="Path_55" data-name="Path 55" d="M26.693,28.571a.741.741,0,0,0,.711,0C35.339,24.217,41.1,17.371,41.1,12.294,41.1,7.556,37.669,5,34.443,5c-3.253,0-5.9,2.719-7.394,5.836C25.55,7.719,22.907,5,19.655,5,16.429,5,13,7.556,13,12.294,13,17.372,18.759,24.217,26.693,28.571ZM19.655,6.479c3.093,0,5.638,3.4,6.693,6.553a.74.74,0,0,0,1.4,0c1.055-3.157,3.6-6.553,6.693-6.553,2.51,0,5.176,2.038,5.176,5.815,0,4.424-5.379,10.73-12.57,14.782-7.191-4.053-12.57-10.358-12.57-14.782C14.479,8.517,17.145,6.479,19.655,6.479Z" transform="translate(-1.824)" fill="#ed7e9e"/>
      </g>
    </g>
  </g>
</svg>
