<svg xmlns="http://www.w3.org/2000/svg" width="80" height="80" viewBox="0 0 80 80">
  <g id="he-circle" transform="translate(-920 -3300.5)">
    <g id="Ellipse_5" data-name="Ellipse 5" transform="translate(920 3300.5)" fill="#fff" stroke="#ed7e9e" stroke-width="2">
      <circle cx="40" cy="40" r="40" stroke="none"/>
      <circle cx="40" cy="40" r="39" fill="none"/>
    </g>
    <g id="Group_107" data-name="Group 107" transform="translate(937 3316.588)">
      <g id="Group_106" data-name="Group 106" transform="translate(0 0.913)">
        <g id="Group_105" data-name="Group 105" transform="translate(0)">
          <g id="Group_104" data-name="Group 104">
            <path id="Path_19" data-name="Path 19" d="M38.88,17.866l3.181-1.417a3.374,3.374,0,0,0,.321-6.007,3.337,3.337,0,0,0-3.03-.106,3.344,3.344,0,1,0-6.2,2.5l1.2,2.982a15.683,15.683,0,0,0-4.1-.544c-.327,0-.657.011-.987.032A15.7,15.7,0,0,0,10.694,8.4l1.038-2.982A3.344,3.344,0,1,0,5.421,3.2,3.343,3.343,0,0,0,.83,6.662,3.372,3.372,0,0,0,3,9.435l3.287,1.284A15.715,15.715,0,0,0,15.72,39.008c.328,0,.658-.011.987-.032A15.717,15.717,0,1,0,38.88,17.866Zm-4.019-7.06a1.56,1.56,0,0,1,2.887.423,1.371,1.371,0,0,0,2.135.865A1.548,1.548,0,1,1,41.34,14.8L37.1,16.691a.421.421,0,0,1-.562-.228l-1.727-4.3-.008-.02A1.551,1.551,0,0,1,34.861,10.805ZM3.646,7.759a1.547,1.547,0,0,1,.34-3,2.236,2.236,0,0,1,1.184.327,1.384,1.384,0,0,0,1.9-1.065A1.569,1.569,0,0,1,8.128,2.774a1.545,1.545,0,0,1,1.8.689,1.6,1.6,0,0,1,.109,1.351L8.515,9.192a.426.426,0,0,1-.551.254ZM1.8,23.288A13.931,13.931,0,0,1,9.087,11.047,14.981,14.981,0,0,1,15.72,9.363a13.924,13.924,0,0,1,11.574,6.191,15.638,15.638,0,0,0-1.922.5,12.064,12.064,0,1,0-9.652,19.3A12.071,12.071,0,0,0,27.586,21.1a11.758,11.758,0,0,1,1.83-.334,13.975,13.975,0,0,1,.229,2.521,13.823,13.823,0,0,1-.946,5.047.9.9,0,0,0,1.673.653,15.612,15.612,0,0,0,1.069-5.7,15.789,15.789,0,0,0-.2-2.513,10.268,10.268,0,1,1-8.9,16.77,15.723,15.723,0,0,0,3.04-1.862.9.9,0,1,0-1.105-1.415A13.917,13.917,0,0,1,1.8,23.288ZM14.527,31a15.8,15.8,0,0,0,.2,2.512,10.268,10.268,0,1,1,8.9-16.77A15.745,15.745,0,0,0,14.527,31Zm5.451,0a10.291,10.291,0,0,1,5.888-9.289A10.276,10.276,0,0,1,20.1,32.576,10.375,10.375,0,0,1,19.979,31ZM30.247,44.92a13.924,13.924,0,0,1-11.574-6.19,15.652,15.652,0,0,0,1.922-.5,12.065,12.065,0,1,0,9.652-19.3A12.074,12.074,0,0,0,18.385,33.206a10.207,10.207,0,0,1-1.833.315,13.925,13.925,0,1,1,13.695,11.4Z" transform="translate(0 -0.913)" fill="#ed7e9e"/>
            <path id="Path_20" data-name="Path 20" d="M297.738,339.316a.9.9,0,1,0,.486-1.173A.906.906,0,0,0,297.738,339.316Z" transform="translate(-270.947 -307.806)" fill="#ed7e9e"/>
          </g>
        </g>
      </g>
    </g>
  </g>
</svg>
