<svg xmlns="http://www.w3.org/2000/svg" width="84" height="26.226" viewBox="0 0 84 26.226">
  <g id="heart-line-2" transform="translate(-920.5 -707.774)">
    <line id="Line_6" data-name="Line 6" x2="18" transform="translate(921.5 720.776)" fill="none" stroke="#ed7e9e" stroke-linecap="round" stroke-width="2"/>
    <line id="Line_7" data-name="Line 7" x2="18" transform="translate(985.5 720.776)" fill="none" stroke="#ed7e9e" stroke-linecap="round" stroke-width="2"/>
    <g id="Group_244" data-name="Group 244" transform="translate(949.001 709.101)">
      <path id="Path_919" data-name="Path 919" d="M13.953,19.652q.124-.125.246-.252l.08-.086c.053-.056.107-.113.159-.171l.093-.1.14-.157.1-.113.13-.152c.033-.039.065-.079.1-.118l.123-.151.1-.121.118-.151.094-.124.113-.153.091-.125.109-.154.087-.126c.036-.052.071-.1.106-.157l.084-.127c.035-.053.068-.106.1-.16l.079-.126c.034-.055.067-.11.1-.165l.074-.123c.034-.057.067-.116.1-.173l.066-.117c.036-.065.07-.13.1-.195l.053-.1q.076-.146.149-.292l.028-.058c.036-.075.073-.15.108-.225h-.01c-.09-.025-.181-.048-.271-.071l-.058-.014q-.135-.033-.271-.062l-.036-.008-.255-.051-.043-.008q-.134-.025-.267-.045l-.057-.009-.268-.037h-.028q-.126-.015-.251-.026h-.047l-.258-.019h-.056q-.131-.007-.259-.01h0l-.006.013-.042.084c-.021.041-.041.081-.063.122l-.047.089-.063.116-.052.091-.064.113-.055.092-.067.111-.058.093-.069.109-.061.093-.072.107-.063.093-.074.106-.065.092-.077.106-.067.091-.08.1-.069.089-.083.1-.071.088-.086.1-.072.086-.091.1-.072.082-.1.109-.069.076-.112.119-.06.063q-.086.09-.175.179a12.2,12.2,0,0,1-1.661,1.392q-.125.087-.252.17a9.1,9.1,0,0,1-3.086,1.335c-.092.019-.184.036-.275.051H7.056c-.086.014-.172.025-.257.035H6.768c-.082.009-.164.016-.244.022H6.489q-.121.007-.238.009H5.945c-.073,0-.145-.009-.216-.015l-.063-.007q-.088-.009-.174-.022L5.435,21c-.072-.012-.144-.025-.214-.041l-.045-.011c-.055-.013-.11-.027-.163-.042l-.07-.021c-.049-.014-.1-.03-.145-.047l-.058-.02c-.063-.023-.124-.048-.185-.075L4.5,20.721c-.044-.02-.087-.041-.13-.063l-.07-.034c-.046-.025-.092-.051-.136-.079l-.039-.023c-.056-.035-.11-.073-.163-.111l-.047-.035q-.06-.046-.118-.094l-.046-.039c-.05-.044-.1-.089-.148-.137a3.131,3.131,0,0,1-.753-1.229q-.04-.119-.072-.241c-.011-.041-.021-.082-.03-.124a4.338,4.338,0,0,1-.1-.93,6.044,6.044,0,0,1,.192-1.49,9.618,9.618,0,0,1,1.627-3.318,12.381,12.381,0,0,1,1.206-1.4c.08-.08.16-.157.241-.234l.057-.053q.25-.235.509-.452l.035-.029A9.354,9.354,0,0,1,11.14,8.4c.049-.007.1-.013.146-.017h0a3.834,3.834,0,0,1,2.869.7l.008.007c.036.029.071.059.1.089L14.3,9.2l.11.1c.034.035.069.071.1.107l.031.036c.022.025.044.05.065.076l.036.045.055.072.036.05.05.072.034.053.045.073.033.056.042.076.03.057.039.079.027.058.036.085.024.056c.012.031.023.062.034.093l.019.052c.013.039.026.078.038.118a.124.124,0,0,0,.01.031c.015.05.029.1.042.152a.2.2,0,0,0,.011.047c.009.036.017.072.025.109a.35.35,0,0,0,.012.063c0,.021.012.064.018.1s.007.046.011.07.009.062.013.094.006.049.008.074a.22.22,0,0,0,.006.055l.077.009.131.016.253.034.128.019.291.047.085.014q.187.033.374.071l.1.021.28.061.13.031.255.063.129.033.288.079.089.025.023.006a5.733,5.733,0,0,0-1.429-4.765C13.812,4.447,8.214,5.608,4.061,9.761s-5.313,9.751-2.586,12.478c1.691,1.691,4.55,1.947,7.649.685a13.88,13.88,0,0,0,2.706-1.486,15.954,15.954,0,0,0,2.123-1.786Zm0,0" transform="translate(0 -6.163)" fill="#fff" stroke="#ed7e9e" stroke-width="1"/>
      <path id="Path_920" data-name="Path 920" d="M406.517,4.576c.464.006.9.026,1.331.046s.86.04,1.248.04a3.175,3.175,0,0,0,2.419-.727,1.338,1.338,0,0,0,.023-1.891,1.109,1.109,0,0,0-.834-.38,2.916,2.916,0,0,0-.909.192.441.441,0,0,1-.56-.56c.3-.888.26-1.295-.188-1.742a1.3,1.3,0,0,0-.923-.38,1.359,1.359,0,0,0-.966.4c-.82.82-.765,2.014-.688,3.668C406.491,3.675,406.511,4.114,406.517,4.576Zm0,0" transform="translate(-385.498)" fill="#fff" stroke="#ed7e9e" stroke-width="1"/>
      <path id="Path_921" data-name="Path 921" d="M81.328,383.469a1.316,1.316,0,0,0-.937.386c-.453.453-.5.865-.19,1.765a.447.447,0,0,1-.568.567,2.95,2.95,0,0,0-.92-.195,1.122,1.122,0,0,0-.844.385,1.356,1.356,0,0,0,.024,1.915,3.218,3.218,0,0,0,2.454.737c.393,0,.815-.02,1.262-.04s.877-.041,1.347-.047c.006-.469.027-.915.047-1.35.078-1.675.134-2.885-.7-3.715a1.373,1.373,0,0,0-.975-.408Zm0,0" transform="translate(-74.779 -364.655)" fill="#fff" stroke="#ed7e9e" stroke-width="1"/>
      <path id="Path_922" data-name="Path 922" d="M134.4,120.594c-.484-.207-.982-.393-1.482-.551a14.8,14.8,0,0,0-3.136-.64q-.164-.015-.327-.025l-.1,0-.24-.012h-.087l-.27-.006h-.041c-3.167-.022-5.727,1.188-6.753,3.229l-.015.029q-.053.107-.1.218c-.02.045-.038.091-.056.136l-.017.047c-.011.031-.023.061-.034.092l-.019.056-.028.084-.018.061-.024.081c-.008.028-.011.042-.017.063l-.021.079-.015.066-.018.079c-.006.027-.009.045-.014.067s-.011.053-.015.079-.008.045-.012.068l-.013.079a.59.59,0,0,1-.01.07c0,.024-.007.052-.01.079s0,.047-.008.07,0,.053-.008.079a.538.538,0,0,1-.006.071c-.006.024,0,.053,0,.08a.346.346,0,0,0,0,.072v.614a.349.349,0,0,0,.007.083c.007.028,0,.049.006.073a.7.7,0,0,1,.009.084c0,.028,0,.048.008.072s.008.057.012.086l.01.072a.656.656,0,0,0,.014.087c0,.029.008.048.012.071s.011.059.017.089.009.047.014.07.013.061.02.092l.015.067c0,.022.016.066.024.1s.01.041.015.061l.033.122a.143.143,0,0,0,.011.039c.015.054.032.107.049.161l.015.046c.012.038.025.077.038.116.007.021.015.041.022.062l.036.1.026.069.035.093.029.072.037.09.032.073.039.088.034.075.04.087.037.076.029.06.076-.019.052-.013.149-.042h.015l.167-.052.045-.015.122-.041.057-.02L123,127.4l.06-.023.114-.045.054-.022.139-.059.029-.012.17-.076.038-.018.131-.062.056-.027.114-.057.06-.031.114-.06.055-.03.132-.074.036-.02.17-.1.025-.015.118-.072-.024-.07-.025-.075q-.018-.054-.033-.108c-.01-.036-.015-.048-.021-.071-.011-.039-.02-.078-.03-.116l-.016-.061c-.012-.052-.022-.1-.032-.155v-.022c-.011-.058-.02-.117-.028-.174a.159.159,0,0,0-.007-.057c0-.039-.01-.078-.013-.116V125.5a.606.606,0,0,0-.006-.1.3.3,0,0,1,0-.073v-.268a.34.34,0,0,1,0-.074c0-.025,0-.062.009-.093s.006-.048.009-.073.009-.061.014-.092.008-.047.012-.071.013-.062.019-.093.01-.045.016-.068.017-.064.026-.1.011-.042.017-.063.023-.07.034-.1.011-.034.018-.051c.019-.051.039-.1.06-.152.605-1.412,2.282-2.26,4.487-2.269h0a10.528,10.528,0,0,1,3.179.5,12.42,12.42,0,0,1,1.206.444,10.524,10.524,0,0,1,4.382,3.326,4.081,4.081,0,0,1,.781,4.011c-.018.042-.037.084-.057.125l-.012.023c-.018.036-.037.072-.056.108v.009a4.225,4.225,0,0,1-3.314,1.936l-.053.006q-.114.015-.23.027l-.094.008-.191.014-.093.006c-.08,0-.161.007-.243.008h-.461q-.228-.007-.458-.026l-.064-.005-.2-.02-.1-.011-.193-.024-.115-.017-.186-.028-.191-.034-.232-.045-.171-.036-.143-.033-.183-.045-.13-.034-.23-.064-.084-.024q-.157-.046-.313-.1l-.089-.03-.233-.08-.107-.039-.226-.085-.1-.038c-.106-.042-.211-.085-.317-.13l-.218-.1-.072-.033-.145-.067-.083-.04-.131-.064-.088-.044-.124-.064-.089-.047-.12-.064-.089-.049-.117-.066-.088-.051-.115-.068-.086-.052-.114-.07-.084-.053-.113-.073-.081-.053-.114-.077-.077-.052-.116-.082-.07-.05-.125-.092-.057-.043c-.055-.042-.11-.084-.164-.127l-.014-.011q-.089-.07-.175-.142l-.043-.036-.114-.1-.085.056-.1.066-.239.154-.079.05q-.157.1-.317.191l-.063.036q-.129.075-.259.147l-.1.056c-.078.042-.156.084-.235.125l-.1.049q-.162.083-.324.161l-.017.008c-.085.041-.171.08-.256.119a15.212,15.212,0,0,0,4.3,2.748,13.786,13.786,0,0,0,7.791,1.067,6.044,6.044,0,0,0,4.755-3.3C142.953,127.674,139.8,122.907,134.4,120.594Zm0,0" transform="translate(-114.773 -113.542)" fill="#fff" stroke="#ed7e9e" stroke-width="1"/>
    </g>
  </g>
</svg>
