<svg xmlns="http://www.w3.org/2000/svg" width="84" height="25.198" viewBox="0 0 84 25.198">
  <g id="heart-line" transform="translate(-920.5 -708.276)">
    <line id="Line_6" data-name="Line 6" x2="18" transform="translate(921.5 720.776)" fill="none" stroke="#fff" stroke-linecap="round" stroke-width="2"/>
    <line id="Line_7" data-name="Line 7" x2="18" transform="translate(985.5 720.776)" fill="none" stroke="#fff" stroke-linecap="round" stroke-width="2"/>
    <g id="Group_244" data-name="Group 244" transform="translate(949.001 709.101)">
      <path id="Path_919" data-name="Path 919" d="M13.953,19.652q.124-.125.246-.252l.08-.086c.053-.056.107-.113.159-.171l.093-.1.14-.157.1-.113.13-.152c.033-.039.065-.079.1-.118l.123-.151.1-.121.118-.151.094-.124.113-.153.091-.125.109-.154.087-.126c.036-.052.071-.1.106-.157l.084-.127c.035-.053.068-.106.1-.16l.079-.126c.034-.055.067-.11.1-.165l.074-.123c.034-.057.067-.116.1-.173l.066-.117c.036-.065.07-.13.105-.195l.053-.1q.076-.146.149-.292l.028-.058c.036-.075.073-.15.108-.225l-.01,0c-.09-.025-.181-.048-.271-.071l-.058-.014q-.135-.033-.271-.062l-.036-.008c-.085-.018-.17-.035-.255-.051l-.043-.008q-.134-.025-.267-.045l-.057-.009q-.135-.02-.268-.037l-.028,0q-.126-.015-.251-.026l-.047,0q-.13-.011-.258-.019l-.056,0q-.131-.007-.259-.01h0l-.006.013-.042.084c-.021.041-.041.081-.063.122l-.047.089-.063.116-.052.091-.064.113-.055.092-.067.111-.058.093-.069.109-.061.093-.072.107-.063.093-.074.106-.065.092-.077.106-.067.091-.08.105-.069.089-.083.1-.071.088-.086.1-.072.086-.091.1-.072.082-.1.109-.069.076-.112.119-.06.063q-.086.09-.175.179a12.2,12.2,0,0,1-1.661,1.392q-.125.087-.252.17a9.1,9.1,0,0,1-3.086,1.335c-.092.019-.184.036-.275.051l-.018,0c-.086.014-.172.025-.257.035l-.031,0c-.082.009-.164.016-.244.022l-.035,0q-.121.007-.238.009H6.163c-.068,0-.136,0-.2,0H5.945c-.073,0-.145-.009-.216-.015l-.063-.007q-.088-.009-.174-.022L5.435,21c-.072-.012-.144-.025-.214-.041l-.045-.011c-.055-.013-.11-.027-.163-.042l-.07-.021c-.049-.014-.1-.03-.145-.047l-.058-.02c-.063-.023-.124-.048-.185-.075L4.5,20.721c-.044-.02-.087-.041-.13-.063L4.3,20.624c-.046-.025-.092-.051-.136-.079l-.039-.023c-.056-.035-.11-.073-.163-.111l-.047-.035q-.06-.046-.118-.094l-.046-.039c-.05-.044-.1-.089-.148-.137a3.131,3.131,0,0,1-.753-1.229q-.04-.119-.072-.241c-.011-.041-.021-.082-.03-.124a4.338,4.338,0,0,1-.1-.93,6.044,6.044,0,0,1,.192-1.49,9.618,9.618,0,0,1,1.627-3.318,12.381,12.381,0,0,1,1.206-1.4c.08-.08.16-.157.241-.234l.057-.053q.25-.235.509-.452l.035-.029A9.354,9.354,0,0,1,11.14,8.4c.049-.007.1-.013.146-.017h0a3.834,3.834,0,0,1,2.869.7l.008.007c.036.029.071.059.105.089L14.3,9.2q.056.05.11.1c.034.035.069.071.1.107l.031.036c.022.025.044.05.065.076l.036.045.055.072.036.05.05.072.034.053.045.073.033.056.042.076.03.057.039.079.027.058c.012.028.024.056.036.085l.024.056c.012.031.023.062.034.093s.013.035.019.052c.013.039.026.078.038.118,0,.011.007.02.01.031.015.05.029.1.042.152,0,.016.007.031.011.047.009.036.017.072.025.109,0,.021.008.042.012.063s.012.064.018.1.007.046.011.07.009.062.013.094.006.049.008.074,0,.036.006.055l.077.009.131.016.253.034.128.019q.145.022.291.047l.085.014q.187.033.374.071l.1.021c.093.02.186.04.28.061l.13.031.255.063.129.033q.144.038.288.079l.089.025.023.006a5.733,5.733,0,0,0-1.429-4.765C13.812,4.447,8.214,5.608,4.061,9.761s-5.313,9.751-2.586,12.478c1.691,1.691,4.55,1.947,7.649.685a13.88,13.88,0,0,0,2.706-1.486A15.954,15.954,0,0,0,13.953,19.652Zm0,0" transform="translate(0 -6.163)" fill="#ed7e9e"/>
      <path id="Path_920" data-name="Path 920" d="M406.517,4.576c.464.006.9.026,1.331.046s.86.04,1.248.04a3.175,3.175,0,0,0,2.419-.727,1.338,1.338,0,0,0,.023-1.891,1.109,1.109,0,0,0-.834-.38,2.916,2.916,0,0,0-.909.192.441.441,0,0,1-.56-.56c.3-.888.26-1.295-.188-1.742a1.3,1.3,0,0,0-.923-.38,1.359,1.359,0,0,0-.966.4c-.82.82-.765,2.014-.688,3.668C406.491,3.675,406.511,4.114,406.517,4.576Zm0,0" transform="translate(-385.498)" fill="#fff"/>
      <path id="Path_921" data-name="Path 921" d="M81.328,383.469a1.316,1.316,0,0,0-.937.386c-.453.453-.5.865-.19,1.765a.447.447,0,0,1-.568.567,2.948,2.948,0,0,0-.92-.195,1.122,1.122,0,0,0-.844.385,1.356,1.356,0,0,0,.024,1.915,3.218,3.218,0,0,0,2.454.737c.393,0,.815-.02,1.262-.04s.877-.041,1.347-.047c.006-.469.027-.915.047-1.35.078-1.675.134-2.885-.7-3.715A1.373,1.373,0,0,0,81.328,383.469Zm0,0" transform="translate(-74.779 -364.655)" fill="#fff"/>
      <path id="Path_922" data-name="Path 922" d="M134.4,120.594c-.484-.207-.982-.393-1.482-.551a14.805,14.805,0,0,0-3.136-.64q-.164-.015-.327-.025l-.1-.005-.24-.012-.087,0-.27-.006h-.041c-3.167-.022-5.727,1.188-6.753,3.229l-.015.029q-.053.107-.1.218c-.02.045-.038.091-.056.136l-.017.047c-.011.031-.023.061-.034.092l-.019.056-.028.084-.018.061c-.008.027-.016.053-.024.081s-.011.042-.017.063l-.021.079c-.005.022-.01.044-.015.066s-.012.052-.018.079-.009.045-.014.067-.011.053-.015.079-.008.045-.012.068l-.013.079c0,.023-.007.046-.01.07s-.007.052-.01.079-.005.047-.008.07-.005.053-.008.079,0,.047-.006.071,0,.053-.005.08,0,.048,0,.072,0,.053,0,.08,0,.048,0,.072,0,.054,0,.081,0,.048,0,.072,0,.054,0,.081,0,.049,0,.073,0,.055,0,.082,0,.049,0,.073,0,.055.007.083,0,.049.006.073.006.056.009.084.005.048.008.072.008.057.012.086l.01.072c0,.029.01.058.014.087s.008.048.012.071.011.059.017.089.009.047.014.07.013.061.02.092.01.045.015.067.016.066.024.1.01.041.015.061c.011.041.022.081.033.122,0,.013.007.026.011.039.015.054.032.107.049.161l.015.046c.012.038.025.077.038.116.007.021.015.041.022.062l.036.1.026.069.035.093.029.072.037.09.032.073.039.088.034.075.04.087.037.076.029.06.076-.019.052-.013.149-.042.015,0,.167-.052.045-.015.122-.041.057-.02.111-.041.06-.023.114-.045.054-.022.139-.059.029-.012.17-.076.038-.018.131-.062.056-.027.114-.057.06-.031.114-.06.055-.03.132-.074.036-.02.17-.1.025-.015.118-.072c-.008-.023-.016-.046-.024-.07l-.025-.075c-.012-.036-.023-.072-.033-.108s-.015-.048-.021-.071c-.011-.039-.02-.078-.03-.116-.005-.02-.011-.041-.016-.061-.012-.052-.022-.1-.032-.155,0-.007,0-.014,0-.022-.011-.058-.02-.117-.028-.174,0-.019,0-.038-.007-.057,0-.039-.01-.078-.013-.116,0-.023,0-.046,0-.069s0-.069-.006-.1,0-.048,0-.073,0-.065,0-.1,0-.05,0-.074,0-.063,0-.094,0-.049.005-.074.005-.062.009-.093.006-.048.009-.073.009-.061.014-.092.008-.047.012-.071.013-.062.019-.093.01-.045.016-.068.017-.064.026-.1.011-.042.017-.063.023-.07.034-.1c.006-.017.011-.034.018-.051.019-.051.039-.1.06-.152.605-1.412,2.282-2.26,4.487-2.269h0a10.528,10.528,0,0,1,3.179.5,12.421,12.421,0,0,1,1.206.444,10.524,10.524,0,0,1,4.382,3.326,4.081,4.081,0,0,1,.781,4.011c-.018.042-.037.084-.057.125l-.012.023c-.018.036-.037.072-.056.108l0,.009a4.225,4.225,0,0,1-3.314,1.936l-.053.006q-.114.015-.23.027l-.094.008c-.063.005-.127.01-.191.014l-.093.006c-.08,0-.161.007-.243.008l-.126,0h-.124l-.186,0h-.025q-.228-.007-.458-.026l-.064-.005-.2-.02-.1-.011-.193-.024-.115-.017-.186-.028-.191-.034-.232-.045-.171-.036-.143-.033-.183-.045-.13-.034-.23-.064-.084-.024q-.157-.046-.313-.1l-.089-.03-.233-.08-.107-.039-.226-.085-.1-.038c-.106-.042-.211-.085-.317-.13l-.218-.1-.072-.033-.145-.067-.083-.04-.131-.064-.088-.044-.124-.064-.089-.047-.12-.064-.089-.049-.117-.066-.088-.051-.115-.068-.086-.052-.114-.07-.084-.053-.113-.073-.081-.053-.114-.077-.077-.052-.116-.082-.07-.05-.125-.092-.057-.043c-.055-.042-.11-.084-.164-.127l-.014-.011q-.089-.07-.175-.142l-.043-.036-.114-.1-.085.056-.1.066q-.119.078-.239.154l-.079.05q-.157.1-.317.191l-.063.036q-.129.075-.259.147l-.1.056c-.078.042-.156.084-.235.125l-.1.049q-.162.083-.324.161l-.017.008c-.085.041-.171.08-.256.119a15.212,15.212,0,0,0,4.3,2.748,13.786,13.786,0,0,0,7.791,1.067,6.044,6.044,0,0,0,4.755-3.3C142.953,127.674,139.8,122.907,134.4,120.594Zm0,0" transform="translate(-114.773 -113.542)" fill="#ed7e9e"/>
    </g>
  </g>
</svg>
