<svg xmlns="http://www.w3.org/2000/svg" width="797.801" height="811.292" viewBox="0 0 797.801 811.292">
  <path id="love-heart-right" d="M469.167,133.5c6.194,28.349,8.516,56.7,6.194,85.048-1.548,26.631-3.871,54.98-8.516,81.611-9.29,54.98-27.871,110.82-38.71,162.364-2.323,12.027-5.419,24.054-12.387,34.363-1.548,8.591-6.968,16.322-15.484,18.9-35.614,11.168-70.453,6.013-106.066-.859-33.291-5.154-65.807-8.591-98.324-16.322-54.194-12.027-102.2-36.94-140.131-81.611C19.354,374.037-4.646,318.2,1.547,258.063c2.323-27.49,13.161-58.417,30.194-79.034,19.355-24.054,46.452-35.222,74.324-39.517s60.388,0,85.163,14.6a85.2,85.2,0,0,1,11.613,7.732c4.645-33.5,15.484-66.148,35.613-94.5C272.519,16.665,339.1-15.12,394.069,8.934,440.522,29.551,459.1,82.813,469.167,133.5Z" transform="translate(341.389 56.467) rotate(33)" fill="#ed7e9e" opacity="0.46"/>
</svg>
