<svg xmlns="http://www.w3.org/2000/svg" width="796.839" height="810.311" viewBox="0 0 796.839 810.311">
  <path id="love-heart-left" d="M468.507,133.311c6.185,28.309,8.5,56.619,6.185,84.928-1.546,26.594-3.866,54.9-8.5,81.5-9.277,54.9-27.832,110.664-38.656,162.135-2.319,12.01-5.412,24.02-12.37,34.314-1.546,8.579-6.958,16.3-15.462,18.873-35.563,11.152-70.353,6.005-105.917-.858-33.244-5.147-65.715-8.579-98.186-16.3-54.118-12.01-102.051-36.888-139.934-81.5-36.336-42.893-60.3-98.654-54.118-158.7,2.319-27.451,13.143-58.334,30.151-78.923,19.328-24.02,46.387-35.172,74.219-39.461s60.3,0,85.043,14.584a85.079,85.079,0,0,1,11.6,7.721c4.639-33.456,15.462-66.055,35.563-94.364,34.017-50.614,100.5-82.354,155.4-58.334C439.9,29.511,458.457,82.7,468.507,133.311Z" transform="translate(340.989 56.467) rotate(33)" fill="#ed7e9e" opacity="0.46"/>
</svg>
