<svg xmlns="http://www.w3.org/2000/svg" width="24.647" height="18.459" viewBox="0 0 24.647 18.459">
  <g id="mail" transform="translate(0 -64.266)">
    <path id="Path_911" data-name="Path 911" d="M14.383,178.252a3.707,3.707,0,0,1-4.12,0l-10.1-6.733c-.056-.037-.111-.076-.164-.116v11.033A2.268,2.268,0,0,0,2.269,184.7H22.378a2.268,2.268,0,0,0,2.269-2.269V171.4c-.054.04-.108.079-.164.117Z" transform="translate(0 -101.979)" fill="#ed7e9e"/>
    <path id="Path_912" data-name="Path 912" d="M.965,68.338l10.1,6.733a2.263,2.263,0,0,0,2.517,0l10.1-6.733a2.162,2.162,0,0,0,.965-1.8,2.271,2.271,0,0,0-2.268-2.268H2.268A2.271,2.271,0,0,0,0,66.535a2.162,2.162,0,0,0,.965,1.8Z" fill="#ed7e9e"/>
  </g>
</svg>
