<svg xmlns="http://www.w3.org/2000/svg" width="80" height="80" viewBox="0 0 80 80">
  <g id="meet-circle" transform="translate(-920 -3300.5)">
    <g id="Ellipse_5" data-name="Ellipse 5" transform="translate(920 3300.5)" fill="#fff" stroke="#ed7e9e" stroke-width="2">
      <circle cx="40" cy="40" r="40" stroke="none"/>
      <circle cx="40" cy="40" r="39" fill="none"/>
    </g>
    <g id="Group_204" data-name="Group 204" transform="translate(938.88 3319.501)">
      <g id="Group_203" data-name="Group 203" transform="translate(0.12 -0.001)">
        <g id="Group_202" data-name="Group 202" transform="translate(0)">
          <path id="Path_51" data-name="Path 51" d="M40.346,25.859a4.2,4.2,0,0,0-1.74-3.164c-.92-.723-2.176-.921-5.6-1.774V19.355l.029-.014h0c.061-.029.234-.123.327-.179l.01-.006a6.78,6.78,0,0,0,3.093-3.976,6.079,6.079,0,0,1,.485,3.583,1.308,1.308,0,0,0,1.571,1.36l1.5-.312a1.615,1.615,0,0,0,1.21-2.075,11.015,11.015,0,0,0-2.648-4.708,2.079,2.079,0,0,0-.22-1.128,2,2,0,0,0,.274-.819.606.606,0,0,0,.035-.2c-.108-1.141.472-3.969-1.337-6.778h0a.612.612,0,0,0-1.109.355c0,.225.076.266.287.646a7.473,7.473,0,0,1,.94,3.893,2.742,2.742,0,0,0-.93-.306.92.92,0,0,0-.9-.326c-3.1.626-4.336-.809-4.724-1.455a1.1,1.1,0,0,0-.948-.536h0A1.1,1.1,0,0,0,29,6.907h0c-.388.646-1.626,2.08-4.724,1.455a.921.921,0,0,0-.9.326,2.741,2.741,0,0,0-.93.306V8.741A7.51,7.51,0,0,1,34.527,2.8a.61.61,0,0,0,.749-.963A8.737,8.737,0,0,0,21.23,8.36c-.014.331-.006.378-.008,2.518a.607.607,0,0,0,.035.2,2,2,0,0,0,.258.79,2.078,2.078,0,0,0-.235,1.156,11.014,11.014,0,0,0-2.648,4.708,1.616,1.616,0,0,0,1.21,2.075,13,13,0,0,0,1.772.339,1.3,1.3,0,0,0,.85-.318,1.453,1.453,0,0,0,.431-1.383,5.563,5.563,0,0,1,.527-3.306A6.669,6.669,0,0,0,26.27,19a6.274,6.274,0,0,0,.6.344V20.92c-3.871.964-4.8,1.042-5.933,2.038-1.124-.987-2.013-1.063-5.931-2.038V19.341a6.614,6.614,0,0,0,.821-.5A6.771,6.771,0,0,0,18.7,13.3a2.152,2.152,0,0,0,1.536-3.325c.017-2.655,0-4.832-2.108-7.17A8.327,8.327,0,0,0,3.6,8.335V9.966s0,0,0,0a2.008,2.008,0,0,0-.384,1.172A2.3,2.3,0,0,0,5.139,13.3a6.6,6.6,0,0,0,.2,1.653,6.792,6.792,0,0,0,3.525,4.407V20.92c-3.567.888-4.684,1.053-5.6,1.774a4.068,4.068,0,0,0-1.632,2.5C1.522,25.722.137,38.237.137,38.245c-.167,1.932.939,3.4,2.849,3.4H8.321a.61.61,0,0,0,0-1.22h-2.3l.6-11.439a.61.61,0,0,0-1.218-.064L5.292,31.2H2.152c.568-4.936.564-5.44.74-6.024a3.552,3.552,0,0,1,2.753-2.2,7.462,7.462,0,0,0,12.578,0,4.787,4.787,0,0,1,1.414.537.623.623,0,0,0,.083.041,5.26,5.26,0,0,1,.426.33,4.324,4.324,0,0,0-.623,1.977l-.6,5.336H18.6l-.12-2.274a.61.61,0,0,0-1.218.064l.6,11.439h-6.7a.61.61,0,0,0,0,1.22H26.035a.61.61,0,0,0,0-1.22h-2.01l.6-11.439a.61.61,0,0,0-1.218-.064l-.035.661-2.969-.672c.432-2.846.024-4.319,1.824-5.4a5.65,5.65,0,0,1,1.691-.606,6.121,6.121,0,0,0,2.962,4.569l.008.005a6.1,6.1,0,0,0,1.5.623,6.076,6.076,0,0,0,4.821-.753l.008-.005a6.056,6.056,0,0,0,2.749-4.433,5.636,5.636,0,0,1,1.669.6c1.815,1.09,1.369,2.522,1.824,5.4l-2.945.67-.035-.66a.61.61,0,0,0-.608-.578H35.84a.61.61,0,0,0-.577.641l.6,11.439H28.881a.61.61,0,0,0,0,1.22h10a2.778,2.778,0,0,0,2.866-2.912C41.758,38.213,41.79,38.872,40.346,25.859ZM38.062,14.239a11.177,11.177,0,0,1,2.007,3.87.388.388,0,0,1-.035.318.392.392,0,0,1-.262.189l-1.5.312a.088.088,0,0,1-.105-.095c.005-.093.013-.192.02-.3a6.837,6.837,0,0,0-.622-3.886A2.07,2.07,0,0,0,38.062,14.239ZM36.727,10a.9.9,0,0,1,0,1.759Zm0,3.033a2.915,2.915,0,0,0,.643-.225.879.879,0,0,1-.654.886C36.717,13.674,36.725,13.11,36.727,13.031Zm-15.135,5.9-1.5-.312a.4.4,0,0,1-.3-.507,11.176,11.176,0,0,1,2.007-3.87,2.074,2.074,0,0,0,.5.412C21.083,16.959,22,19.012,21.592,18.927ZM23.166,10v1.759A.9.9,0,0,1,23.166,10Zm-.673,2.793a2.919,2.919,0,0,0,.673.24c.007.624,0,.542.011.668C23.172,13.7,22.466,13.224,22.493,12.791ZM5.2,32.42,4.779,40.43c-1.44-.078-2.319.223-2.965-.432a1.792,1.792,0,0,1-.475-1.271c-.007-.431.018-.3.677-6.307H5.2Zm13.5-20.4V10.264A.9.9,0,0,1,18.7,12.023Zm-13.561,0a.9.9,0,0,1,0-1.759ZM5.371,8.95a2.792,2.792,0,0,0-.549.13c0-.566-.008-.917.021-1.293A7.093,7.093,0,0,1,12.125,1.24l.066,0a7.1,7.1,0,0,1,6.818,6.785c.012.713,0,.075.007,1.052a2.776,2.776,0,0,0-.488-.121,1.122,1.122,0,0,0-.51-.43c-.081-.035-.1-.028-.246-.075a3.684,3.684,0,0,1-2.032-1.968,1.04,1.04,0,0,0-1.861.033c-.578,1.216-3.187,3.34-7.56,2.144A.929.929,0,0,0,5.371,8.95Zm2.382,8.033c-1.711-1.992-1.394-3.541-1.394-7.05a8.989,8.989,0,0,0,5.6-.3,6.011,6.011,0,0,0,2.863-2.289,4.76,4.76,0,0,0,2.659,2.3c0,.674,0,3.069,0,3.115a5.774,5.774,0,0,1-1.641,4.489,5.655,5.655,0,0,1-4.184,1.611c-.091,0-.183-.011-.274-.019s-.182-.02-.272-.033A5.566,5.566,0,0,1,7.753,16.983Zm6.72,5.062.185.046a4.057,4.057,0,0,1-5.448,0l.185-.046a.622.622,0,0,0,.1-.036,1.117,1.117,0,0,0,.586-1.045V19.83a6.805,6.805,0,0,0,3.7-.008v1.142A1.069,1.069,0,0,0,14.473,22.045Zm-7.565.619.942-.235a5.284,5.284,0,0,0,8.169,0l.942.235A6.246,6.246,0,0,1,6.908,22.664Zm16.4,8.159L22.8,40.43c-1.8-.01-2.586.157-3.133-.6a2.144,2.144,0,0,1-.319-1.469l.92-8.222Zm9.712-11.479L33,19.3v-.019l.029.057Zm-7.3-2.423c-1.676-1.95-1.34-3.782-1.34-7.3,1.261.194,4.077.329,5.56-1.929,1.484,2.258,4.3,2.123,5.56,1.929V13.3A5.571,5.571,0,0,1,25.726,16.922Zm4.208,8.164a2.662,2.662,0,0,1-1.731-.63,2.51,2.51,0,0,1-.322-.317,2.7,2.7,0,0,1-.615-1.277,3.789,3.789,0,0,1-.047-.772,1.717,1.717,0,0,0,.281-.08,1.117,1.117,0,0,0,.586-1.045V19.822a6.809,6.809,0,0,0,3.7.007v1.134a1.069,1.069,0,0,0,.69,1.082l.2.05a2.834,2.834,0,0,1-.73,2.12,2.744,2.744,0,0,1-.624.5,2.644,2.644,0,0,1-1.341.37ZM32,26.633a4.839,4.839,0,0,1-6.88-4.021L26,22.393a3.953,3.953,0,0,0,7.257,2.118,4.02,4.02,0,0,0,.637-2.112l.878.219A4.861,4.861,0,0,1,32,26.633ZM40.055,40c-.647.655-1.525.354-2.966.432l-.508-9.607,3.016-.686c1,9.031.921,7.964.933,8.617A1.8,1.8,0,0,1,40.055,40Z" transform="translate(-0.12 0.001)" fill="#ed7e9e"/>
        </g>
      </g>
    </g>
  </g>
</svg>
