<svg xmlns="http://www.w3.org/2000/svg" width="51.159" height="50.862" viewBox="0 0 51.159 50.862">
  <g id="restaurant" transform="translate(0.601 0.103)">
    <path id="Path_38" data-name="Path 38" d="M87.876,25.827l2.94-.186h.016a6.923,6.923,0,0,0,5.16-3.012l2.324-3.41a13.76,13.76,0,0,0,2.206-10.1A3.1,3.1,0,0,0,97.61,6.539a13.757,13.757,0,0,0-9.759,3.4l-3.107,2.716a6.923,6.923,0,0,0-2.372,5.484s0,.01,0,.016l.168,2.941a4.139,4.139,0,0,1-1.151,3.1L57.117,49.134a3.527,3.527,0,0,0-.945,2.618,4.055,4.055,0,0,0,4.109,3.941q.161,0,.323-.013a3.528,3.528,0,0,0,2.489-1.256l21.84-27.081A4.14,4.14,0,0,1,87.876,25.827Zm-4.109.573L61.929,53.479a2.042,2.042,0,0,1-1.445.707,2.562,2.562,0,0,1-2.813-2.494,2.038,2.038,0,0,1,.524-1.515L82.467,25.243a5.645,5.645,0,0,0,1.572-4.231l-.168-2.933a5.43,5.43,0,0,1,1.86-4.293l3.107-2.716a12.273,12.273,0,0,1,8.7-3.032,1.606,1.606,0,0,1,1.505,1.335,12.267,12.267,0,0,1-1.967,9l-2.324,3.41a5.43,5.43,0,0,1-4.039,2.362l-2.932.186A5.647,5.647,0,0,0,83.768,26.4Zm0,0" transform="translate(-50.679 -5.435)" fill="#ed7e9e" stroke="#ed7e9e" stroke-width="1"/>
    <path id="Path_39" data-name="Path 39" d="M310.031,301.919,293.756,287.1a.75.75,0,1,0-1.01,1.109l16.271,14.82a2.042,2.042,0,0,1,.618,1.484,2.562,2.562,0,0,1-2.658,2.658,2.04,2.04,0,0,1-1.481-.614l-14.5-15.922a.75.75,0,1,0-1.109,1.01l14.506,15.926a3.527,3.527,0,0,0,2.557,1.1h.079a4.06,4.06,0,0,0,4.109-4.189A3.53,3.53,0,0,0,310.031,301.919Zm0,0" transform="translate(-261.376 -258.41)" fill="#ed7e9e" stroke="#ed7e9e" stroke-width="1"/>
    <path id="Path_40" data-name="Path 40" d="M9.052,20.25a6.946,6.946,0,0,0,4.542,1.836h.016l2.946.009a4.138,4.138,0,0,1,3.027,1.335l1.3,1.424a.75.75,0,1,0,1.109-1.01l-1.3-1.426A5.644,5.644,0,0,0,16.56,20.6l-2.938-.009a5.45,5.45,0,0,1-3.52-1.408L1.565,9.03a.259.259,0,0,1,.381-.35l7.771,7.771a1.972,1.972,0,0,0,2.786,0l.913-.913h0l1.621-1.621h0L15.952,13a1.972,1.972,0,0,0,0-2.786L8.181,2.445a.259.259,0,0,1,.35-.381L18.68,10.6a5.448,5.448,0,0,1,1.409,3.52l.009,2.938a5.649,5.649,0,0,0,1.825,4.131l1.39,1.266a.75.75,0,1,0,1.01-1.109l-1.388-1.264A4.141,4.141,0,0,1,21.6,17.054l-.009-2.946c0-.005,0-.011,0-.016A6.946,6.946,0,0,0,19.752,9.55a.749.749,0,0,0-.069-.066L9.5.916A1.759,1.759,0,0,0,7.12,3.506l7.771,7.771a.471.471,0,0,1,0,.665l-.383.383L5.847,3.664A.75.75,0,0,0,4.787,4.724l8.661,8.661-.561.561L4.226,5.286A.75.75,0,0,0,3.165,6.346l8.66,8.661-.383.383a.471.471,0,0,1-.665,0L3.007,7.619A1.759,1.759,0,0,0,.417,10L8.986,20.181A.7.7,0,0,0,9.052,20.25Zm0,0" transform="translate(0 0)" fill="#ed7e9e" stroke="#ed7e9e" stroke-width="1"/>
  </g>
</svg>
