<svg xmlns="http://www.w3.org/2000/svg" width="70.645" height="70.528" viewBox="0 0 70.645 70.528">
  <g id="search" transform="translate(-11 -11.4)">
    <g id="Group_176" data-name="Group 176" transform="translate(11 11.4)">
      <g id="Group_175" data-name="Group 175" transform="translate(0 0)">
        <path id="Path_46" data-name="Path 46" d="M153.038,140.549h-7.108v-7.108a2.941,2.941,0,1,0-5.882,0v7.108h-7.108a2.941,2.941,0,1,0,0,5.882h7.108v7.108a2.941,2.941,0,1,0,5.882,0v-7.108h7.108a2.941,2.941,0,1,0,0-5.882Z" transform="translate(-112.844 -113.329)" fill="#fff"/>
        <path id="Path_47" data-name="Path 47" d="M41.16,65.8A24.235,24.235,0,1,1,65.4,41.56,24.236,24.236,0,0,1,41.16,65.8ZM80.778,77.041,64.444,60.706a30.02,30.02,0,1,0-4.152,4.167L76.626,81.207a3.387,3.387,0,0,0,4.167,0A2.954,2.954,0,0,0,80.778,77.041Z" transform="translate(-11 -11.4)" fill="#fff"/>
      </g>
    </g>
  </g>
</svg>
