<svg xmlns="http://www.w3.org/2000/svg" width="80" height="80" viewBox="0 0 80 80">
  <g id="story-heart-point" transform="translate(-920 -3300)">
    <g id="Ellipse_5" data-name="Ellipse 5" transform="translate(920 3300)" fill="#f5cbd7" stroke="#ed7e9e" stroke-width="3">
      <circle cx="40" cy="40" r="40" stroke="none"/>
      <circle cx="40" cy="40" r="38.5" fill="none"/>
    </g>
    <g id="Group_243" data-name="Group 243" transform="translate(933.001 3312.824)">
      <path id="Path_915" data-name="Path 915" d="M28.318,34.017q.252-.253.5-.511c.055-.057.109-.116.163-.174.109-.115.217-.23.323-.346.064-.069.126-.14.189-.21.1-.106.191-.212.284-.319.067-.075.131-.152.2-.228.088-.1.177-.206.263-.308.067-.079.132-.16.2-.239.084-.1.168-.2.25-.306.066-.081.13-.164.194-.246q.121-.153.24-.307l.19-.251q.116-.155.23-.31c.062-.084.123-.169.184-.254.074-.1.149-.208.222-.313.06-.085.119-.171.177-.256.073-.105.144-.212.214-.318.057-.085.114-.171.17-.257.07-.108.139-.216.207-.324.054-.085.108-.17.161-.256.069-.111.136-.223.2-.335.05-.083.1-.167.149-.25.069-.116.136-.235.2-.352l.135-.237c.073-.132.143-.263.214-.4.035-.066.072-.132.107-.2q.155-.3.3-.593c.02-.039.038-.079.056-.118.074-.152.147-.3.218-.456l-.021-.006c-.183-.05-.367-.1-.55-.144l-.117-.028q-.275-.067-.55-.126l-.074-.015c-.172-.037-.345-.07-.517-.1l-.087-.016q-.272-.05-.543-.091l-.116-.017q-.274-.041-.545-.074l-.057-.007q-.256-.03-.509-.053l-.1-.009q-.263-.023-.523-.038l-.113-.006q-.265-.014-.526-.02h-.009c0,.009-.009.017-.013.026-.028.056-.058.114-.086.171-.042.082-.084.165-.127.247-.032.06-.064.12-.1.18-.042.079-.085.157-.128.236l-.105.185c-.043.076-.087.153-.131.229s-.074.125-.111.187l-.136.225c-.039.063-.078.126-.118.188s-.093.147-.14.221l-.123.189c-.048.073-.1.145-.145.217l-.128.189c-.049.072-.1.144-.151.215s-.088.125-.133.187-.1.143-.156.214l-.137.184c-.053.071-.108.143-.162.214l-.14.181-.168.212-.144.178-.175.211c-.049.058-.1.117-.146.174s-.123.143-.185.213l-.145.167-.2.221-.139.154c-.074.081-.151.161-.227.241-.041.043-.08.086-.121.128q-.175.182-.355.363a24.753,24.753,0,0,1-3.37,2.825q-.253.177-.512.346a18.47,18.47,0,0,1-6.263,2.71c-.187.039-.374.073-.559.1l-.036.006c-.175.028-.349.051-.521.071l-.064.008c-.167.018-.332.032-.5.044l-.072,0q-.245.014-.484.018H12.6l-.088,0h0c-.139,0-.276,0-.411-.009l-.031,0c-.148-.007-.294-.018-.439-.031l-.128-.014q-.179-.019-.353-.046l-.115-.016c-.147-.024-.291-.051-.434-.082l-.092-.022c-.112-.026-.223-.054-.332-.085l-.142-.042c-.1-.029-.2-.062-.294-.1l-.119-.041c-.127-.047-.252-.1-.375-.151-.039-.017-.077-.035-.116-.053-.089-.041-.177-.084-.264-.128l-.129-.069c-.094-.051-.186-.1-.277-.16l-.079-.047c-.113-.071-.223-.147-.331-.225l-.095-.071q-.122-.093-.239-.191c-.031-.025-.062-.051-.093-.078-.1-.09-.2-.182-.3-.278a6.354,6.354,0,0,1-1.528-2.493q-.081-.241-.146-.49c-.022-.084-.042-.167-.061-.252a8.8,8.8,0,0,1-.206-1.887,12.265,12.265,0,0,1,.39-3.024,19.519,19.519,0,0,1,3.3-6.733,25.126,25.126,0,0,1,2.447-2.836c.162-.162.326-.319.49-.476l.115-.108q.508-.477,1.032-.917l.07-.058a18.984,18.984,0,0,1,9.38-4.481c.1-.014.2-.025.3-.035h0a7.781,7.781,0,0,1,5.823,1.426l.016.014c.073.059.144.119.214.181l.052.046q.114.1.223.21c.07.071.139.144.206.218.022.024.042.049.063.073.045.051.089.1.132.154.025.03.048.06.072.091.038.048.076.1.112.146.024.033.048.067.072.1s.068.1.1.146l.07.108c.031.049.062.1.091.148l.066.113c.029.051.057.1.085.154s.041.077.06.116.053.107.079.161l.055.117c.025.056.049.113.073.172l.049.114c.024.063.047.126.07.189.013.035.027.07.039.106.027.078.053.159.078.239.007.021.014.042.02.063.031.1.059.2.085.309.008.032.014.064.022.1.018.073.035.146.05.221.009.042.017.085.025.128.013.065.025.13.036.2.008.047.015.094.021.142s.019.126.027.19.011.1.017.15.009.074.013.112l.157.019.266.032c.171.021.341.044.513.068l.261.038q.295.045.59.1l.172.028q.379.068.758.144l.2.042c.189.04.378.081.567.124l.265.062c.172.041.345.084.517.127l.262.068q.292.077.584.161l.18.05.047.013c.4-3.97-.613-7.383-2.9-9.671-5.535-5.534-16.9-3.18-25.323,5.249S-2.54,33.731,2.994,39.266c3.432,3.431,9.235,3.951,15.523,1.39a28.169,28.169,0,0,0,5.492-3.017A32.377,32.377,0,0,0,28.318,34.017Zm0,0" transform="translate(0 -5.792)" fill="#ed7e9e"/>
      <path id="Path_916" data-name="Path 916" d="M406.626,11.359c1.047.013,2.039.059,3,.1,1,.047,1.94.091,2.816.091,2.292,0,4.1-.28,5.457-1.64a3.02,3.02,0,0,0,.051-4.266,2.5,2.5,0,0,0-1.881-.858,6.578,6.578,0,0,0-2.05.434.995.995,0,0,1-1.263-1.263c.684-2,.586-2.921-.424-3.929a2.923,2.923,0,0,0-2.082-.856,3.067,3.067,0,0,0-2.18.909c-1.85,1.85-1.725,4.545-1.552,8.276C406.567,9.326,406.613,10.316,406.626,11.359Zm0,0" transform="translate(-365.194 0)" fill="#ed7e9e"/>
      <path id="Path_917" data-name="Path 917" d="M86.278,383.469a3.012,3.012,0,0,0-2.144.883c-1.037,1.037-1.138,1.98-.435,4.038a1.023,1.023,0,0,1-1.3,1.3,6.744,6.744,0,0,0-2.106-.446,2.566,2.566,0,0,0-1.931.881,3.1,3.1,0,0,0,.055,4.381c1.4,1.4,3.257,1.686,5.615,1.686.9,0,1.865-.045,2.888-.092.989-.045,2.006-.093,3.081-.107.014-1.073.062-2.093.108-3.087.178-3.832.307-6.6-1.592-8.5A3.142,3.142,0,0,0,86.278,383.469Zm0,0" transform="translate(-68.806 -341.251)" fill="#ed7e9e"/>
      <path id="Path_918" data-name="Path 918" d="M147.7,121.874c-.982-.421-1.993-.8-3.008-1.119a30.047,30.047,0,0,0-6.364-1.3q-.333-.03-.663-.051l-.193-.011c-.162-.009-.325-.018-.486-.024l-.177-.006c-.184-.006-.367-.01-.549-.012h-.083c-6.427-.044-11.623,2.412-13.705,6.554-.01.02-.02.038-.03.059q-.108.218-.2.442c-.04.091-.077.184-.113.277l-.035.094c-.023.062-.047.124-.069.186-.014.038-.026.077-.039.115-.019.056-.038.113-.056.17-.013.041-.025.082-.037.123s-.033.109-.049.164-.023.086-.035.129-.029.108-.042.161-.021.089-.031.133-.025.106-.037.16-.018.091-.028.136-.021.107-.031.16-.016.092-.024.138-.018.107-.026.16-.014.094-.02.141-.014.106-.021.16-.01.095-.015.143-.011.107-.016.161-.008.1-.011.144-.008.108-.011.161-.005.1-.007.146,0,.109-.006.163,0,.1,0,.146,0,.11,0,.165,0,.1,0,.147,0,.11,0,.165,0,.1,0,.148.006.112.009.167.006.1.009.148.009.112.014.168.008.1.013.148.013.114.019.171.011.1.017.147.016.116.024.174.014.1.021.146.02.118.029.177.016.1.025.145.023.12.035.18.018.094.028.142.027.125.042.187c.01.046.02.091.031.137.016.067.032.133.049.2.01.042.02.083.031.124.021.082.045.164.068.247.007.026.014.052.022.078.031.109.064.217.1.326l.03.093c.025.078.051.157.077.235.014.042.03.084.044.126.024.067.048.134.072.2l.053.14c.023.063.047.125.072.188s.039.1.059.145.05.122.075.183l.064.148.079.179c.023.051.046.1.07.152s.054.117.082.176l.074.154c.02.041.039.081.06.121.052-.013.1-.025.154-.039l.105-.027c.1-.027.2-.055.3-.085l.03-.008c.113-.033.226-.069.339-.1l.091-.03.248-.084.116-.041.226-.083.121-.046c.077-.029.155-.06.232-.091l.11-.044.283-.119.058-.024q.172-.075.345-.154l.076-.036c.089-.041.178-.083.266-.126l.113-.056.231-.116.121-.063.232-.122.112-.061.268-.15.073-.04c.115-.066.23-.133.345-.2l.05-.031.239-.147c-.017-.047-.032-.094-.048-.141s-.035-.1-.051-.153c-.024-.073-.046-.146-.067-.219-.014-.049-.03-.1-.043-.144-.022-.079-.041-.158-.061-.236-.011-.042-.022-.083-.032-.125-.024-.1-.046-.21-.066-.314,0-.015-.007-.029-.009-.044-.023-.119-.041-.237-.057-.354-.006-.039-.009-.078-.014-.116-.01-.079-.02-.158-.027-.236,0-.046-.007-.093-.01-.14,0-.07-.01-.14-.013-.209,0-.049,0-.1,0-.147,0-.067,0-.133,0-.2s0-.1,0-.151,0-.128.008-.192.007-.1.011-.15.011-.126.018-.189.011-.1.018-.148.018-.125.028-.188c.008-.048.016-.1.025-.143s.026-.125.039-.188c.01-.046.02-.092.031-.138.016-.064.034-.129.052-.193.012-.042.023-.085.035-.127.022-.071.046-.141.07-.211.012-.035.023-.07.036-.1.038-.1.078-.207.122-.309,1.228-2.865,4.632-4.587,9.105-4.606h0a21.367,21.367,0,0,1,6.452,1.023,25.208,25.208,0,0,1,2.447.9,21.357,21.357,0,0,1,8.892,6.75c2.054,2.844,2.617,5.734,1.586,8.14-.036.086-.076.17-.116.253-.008.016-.017.032-.024.047-.037.074-.074.146-.113.218l-.01.017c-1.155,2.1-3.516,3.491-6.725,3.929l-.107.012q-.23.031-.467.054l-.191.016c-.128.011-.257.021-.388.028-.063,0-.125.009-.188.011-.163.008-.328.014-.493.017l-.255,0h-.1l-.151,0c-.126,0-.252,0-.378-.006h-.05q-.462-.015-.93-.053l-.13-.01c-.136-.011-.273-.026-.41-.04l-.206-.023c-.13-.014-.26-.031-.391-.049-.077-.01-.155-.022-.234-.034-.126-.019-.252-.037-.378-.058s-.258-.046-.387-.07c-.156-.028-.313-.06-.47-.091-.115-.024-.231-.048-.347-.074-.1-.021-.194-.044-.291-.067l-.372-.091-.265-.068q-.234-.062-.467-.13l-.171-.049q-.318-.093-.635-.2l-.181-.061c-.158-.053-.316-.107-.473-.162l-.217-.078q-.229-.085-.459-.173l-.2-.076c-.215-.085-.429-.172-.643-.264q-.222-.1-.443-.2l-.146-.067q-.148-.067-.294-.137l-.169-.082-.265-.129-.178-.09-.251-.129-.181-.1-.243-.131-.181-.1c-.079-.044-.158-.088-.237-.134l-.179-.1q-.117-.068-.233-.137l-.175-.106-.231-.143-.171-.107-.23-.149-.164-.108c-.078-.051-.154-.1-.231-.157l-.155-.106-.236-.167-.142-.1c-.085-.062-.169-.125-.253-.188-.039-.029-.078-.057-.116-.087-.112-.084-.223-.171-.333-.257l-.029-.022q-.18-.142-.355-.288l-.088-.073c-.077-.065-.156-.13-.232-.2l-.172.114-.2.134q-.242.158-.486.312l-.161.1q-.32.2-.643.389l-.128.074q-.262.152-.525.3l-.208.113c-.158.086-.317.171-.476.253l-.193.1q-.328.168-.658.326l-.035.016c-.172.082-.346.163-.519.242a30.87,30.87,0,0,0,8.723,5.577,27.977,27.977,0,0,0,15.81,2.164c4.749-.879,8.177-3.257,9.65-6.7C165.062,136.242,158.657,126.569,147.7,121.874Zm0,0" transform="translate(-107.872 -106.714)" fill="#ed7e9e"/>
      <path id="Path_927" data-name="Path 927" d="M28.318,34.017q.252-.253.5-.511c.055-.057.109-.116.163-.174.109-.115.217-.23.323-.346.064-.069.126-.14.189-.21.1-.106.191-.212.284-.319.067-.075.131-.152.2-.228.088-.1.177-.206.263-.308.067-.079.132-.16.2-.239.084-.1.168-.2.25-.306.066-.081.13-.164.194-.246q.121-.153.24-.307l.19-.251q.116-.155.23-.31c.062-.084.123-.169.184-.254.074-.1.149-.208.222-.313.06-.085.119-.171.177-.256.073-.105.144-.212.214-.318.057-.085.114-.171.17-.257.07-.108.139-.216.207-.324.054-.085.108-.17.161-.256.069-.111.136-.223.2-.335.05-.083.1-.167.149-.25.069-.116.136-.235.2-.352l.135-.237c.073-.132.143-.263.214-.4.035-.066.072-.132.107-.2q.155-.3.3-.593c.02-.039.038-.079.056-.118.074-.152.147-.3.218-.456l-.021-.006c-.183-.05-.367-.1-.55-.144l-.117-.028q-.275-.067-.55-.126l-.074-.015c-.172-.037-.345-.07-.517-.1l-.087-.016q-.272-.05-.543-.091l-.116-.017q-.274-.041-.545-.074l-.057-.007q-.256-.03-.509-.053l-.1-.009q-.263-.023-.523-.038l-.113-.006q-.265-.014-.526-.02h-.009c0,.009-.009.017-.013.026-.028.056-.058.114-.086.171-.042.082-.084.165-.127.247-.032.06-.064.12-.1.18-.042.079-.085.157-.128.236l-.105.185c-.043.076-.087.153-.131.229s-.074.125-.111.187l-.136.225c-.039.063-.078.126-.118.188s-.093.147-.14.221l-.123.189c-.048.073-.1.145-.145.217l-.128.189c-.049.072-.1.144-.151.215s-.088.125-.133.187-.1.143-.156.214l-.137.184c-.053.071-.108.143-.162.214l-.14.181-.168.212-.144.178-.175.211c-.049.058-.1.117-.146.174s-.123.143-.185.213l-.145.167-.2.221-.139.154c-.074.081-.151.161-.227.241-.041.043-.08.086-.121.128q-.175.182-.355.363a24.753,24.753,0,0,1-3.37,2.825q-.253.177-.512.346a18.47,18.47,0,0,1-6.263,2.71c-.187.039-.374.073-.559.1l-.036.006c-.175.028-.349.051-.521.071l-.064.008c-.167.018-.332.032-.5.044l-.072,0q-.245.014-.484.018H12.6l-.088,0h0c-.139,0-.276,0-.411-.009l-.031,0c-.148-.007-.294-.018-.439-.031l-.128-.014q-.179-.019-.353-.046l-.115-.016c-.147-.024-.291-.051-.434-.082l-.092-.022c-.112-.026-.223-.054-.332-.085l-.142-.042c-.1-.029-.2-.062-.294-.1l-.119-.041c-.127-.047-.252-.1-.375-.151-.039-.017-.077-.035-.116-.053-.089-.041-.177-.084-.264-.128l-.129-.069c-.094-.051-.186-.1-.277-.16l-.079-.047c-.113-.071-.223-.147-.331-.225l-.095-.071q-.122-.093-.239-.191c-.031-.025-.062-.051-.093-.078-.1-.09-.2-.182-.3-.278a6.354,6.354,0,0,1-1.528-2.493q-.081-.241-.146-.49c-.022-.084-.042-.167-.061-.252a8.8,8.8,0,0,1-.206-1.887,12.265,12.265,0,0,1,.39-3.024,19.519,19.519,0,0,1,3.3-6.733,25.126,25.126,0,0,1,2.447-2.836c.162-.162.326-.319.49-.476l.115-.108q.508-.477,1.032-.917l.07-.058a18.984,18.984,0,0,1,9.38-4.481c.1-.014.2-.025.3-.035h0a7.781,7.781,0,0,1,5.823,1.426l.016.014c.073.059.144.119.214.181l.052.046q.114.1.223.21c.07.071.139.144.206.218.022.024.042.049.063.073.045.051.089.1.132.154.025.03.048.06.072.091.038.048.076.1.112.146.024.033.048.067.072.1s.068.1.1.146l.07.108c.031.049.062.1.091.148l.066.113c.029.051.057.1.085.154s.041.077.06.116.053.107.079.161l.055.117c.025.056.049.113.073.172l.049.114c.024.063.047.126.07.189.013.035.027.07.039.106.027.078.053.159.078.239.007.021.014.042.02.063.031.1.059.2.085.309.008.032.014.064.022.1.018.073.035.146.05.221.009.042.017.085.025.128.013.065.025.13.036.2.008.047.015.094.021.142s.019.126.027.19.011.1.017.15.009.074.013.112l.157.019.266.032c.171.021.341.044.513.068l.261.038q.295.045.59.1l.172.028q.379.068.758.144l.2.042c.189.04.378.081.567.124l.265.062c.172.041.345.084.517.127l.262.068q.292.077.584.161l.18.05.047.013c.4-3.97-.613-7.383-2.9-9.671-5.535-5.534-16.9-3.18-25.323,5.249S-2.54,33.731,2.994,39.266c3.432,3.431,9.235,3.951,15.523,1.39a28.169,28.169,0,0,0,5.492-3.017A32.377,32.377,0,0,0,28.318,34.017Zm0,0" transform="translate(0 -5.792)" fill="#ed7e9e"/>
      <path id="Path_928" data-name="Path 928" d="M406.626,11.359c1.047.013,2.039.059,3,.1,1,.047,1.94.091,2.816.091,2.292,0,4.1-.28,5.457-1.64a3.02,3.02,0,0,0,.051-4.266,2.5,2.5,0,0,0-1.881-.858,6.578,6.578,0,0,0-2.05.434.995.995,0,0,1-1.263-1.263c.684-2,.586-2.921-.424-3.929a2.923,2.923,0,0,0-2.082-.856,3.067,3.067,0,0,0-2.18.909c-1.85,1.85-1.725,4.545-1.552,8.276C406.567,9.326,406.613,10.316,406.626,11.359Zm0,0" transform="translate(-365.194)" fill="#fff"/>
      <path id="Path_929" data-name="Path 929" d="M86.278,383.469a3.012,3.012,0,0,0-2.144.883c-1.037,1.037-1.138,1.98-.435,4.038a1.023,1.023,0,0,1-1.3,1.3,6.744,6.744,0,0,0-2.106-.446,2.566,2.566,0,0,0-1.931.881,3.1,3.1,0,0,0,.055,4.381c1.4,1.4,3.257,1.686,5.615,1.686.9,0,1.865-.045,2.888-.092.989-.045,2.006-.093,3.081-.107.014-1.073.062-2.093.108-3.087.178-3.832.307-6.6-1.592-8.5A3.142,3.142,0,0,0,86.278,383.469Zm0,0" transform="translate(-68.806 -341.251)" fill="#fff"/>
      <path id="Path_930" data-name="Path 930" d="M147.7,121.874c-.982-.421-1.993-.8-3.008-1.119a30.047,30.047,0,0,0-6.364-1.3q-.333-.03-.663-.051l-.193-.011c-.162-.009-.325-.018-.486-.024l-.177-.006c-.184-.006-.367-.01-.549-.012h-.083c-6.427-.044-11.623,2.412-13.705,6.554-.01.02-.02.038-.03.059q-.108.218-.2.442c-.04.091-.077.184-.113.277l-.035.094c-.023.062-.047.124-.069.186-.014.038-.026.077-.039.115-.019.056-.038.113-.056.17-.013.041-.025.082-.037.123s-.033.109-.049.164-.023.086-.035.129-.029.108-.042.161-.021.089-.031.133-.025.106-.037.16-.018.091-.028.136-.021.107-.031.16-.016.092-.024.138-.018.107-.026.16-.014.094-.02.141-.014.106-.021.16-.01.095-.015.143-.011.107-.016.161-.008.1-.011.144-.008.108-.011.161-.005.1-.007.146,0,.109-.006.163,0,.1,0,.146,0,.11,0,.165,0,.1,0,.147,0,.11,0,.165,0,.1,0,.148.006.112.009.167.006.1.009.148.009.112.014.168.008.1.013.148.013.114.019.171.011.1.017.147.016.116.024.174.014.1.021.146.02.118.029.177.016.1.025.145.023.12.035.18.018.094.028.142.027.125.042.187c.01.046.02.091.031.137.016.067.032.133.049.2.01.042.02.083.031.124.021.082.045.164.068.247.007.026.014.052.022.078.031.109.064.217.1.326l.03.093c.025.078.051.157.077.235.014.042.03.084.044.126.024.067.048.134.072.2l.053.14c.023.063.047.125.072.188s.039.1.059.145.05.122.075.183l.064.148.079.179c.023.051.046.1.07.152s.054.117.082.176l.074.154c.02.041.039.081.06.121.052-.013.1-.025.154-.039l.105-.027c.1-.027.2-.055.3-.085l.03-.008c.113-.033.226-.069.339-.1l.091-.03.248-.084.116-.041.226-.083.121-.046c.077-.029.155-.06.232-.091l.11-.044.283-.119.058-.024q.172-.075.345-.154l.076-.036c.089-.041.178-.083.266-.126l.113-.056.231-.116.121-.063.232-.122.112-.061.268-.15.073-.04c.115-.066.23-.133.345-.2l.05-.031.239-.147c-.017-.047-.032-.094-.048-.141s-.035-.1-.051-.153c-.024-.073-.046-.146-.067-.219-.014-.049-.03-.1-.043-.144-.022-.079-.041-.158-.061-.236-.011-.042-.022-.083-.032-.125-.024-.1-.046-.21-.066-.314,0-.015-.007-.029-.009-.044-.023-.119-.041-.237-.057-.354-.006-.039-.009-.078-.014-.116-.01-.079-.02-.158-.027-.236,0-.046-.007-.093-.01-.14,0-.07-.01-.14-.013-.209,0-.049,0-.1,0-.147,0-.067,0-.133,0-.2s0-.1,0-.151,0-.128.008-.192.007-.1.011-.15.011-.126.018-.189.011-.1.018-.148.018-.125.028-.188c.008-.048.016-.1.025-.143s.026-.125.039-.188c.01-.046.02-.092.031-.138.016-.064.034-.129.052-.193.012-.042.023-.085.035-.127.022-.071.046-.141.07-.211.012-.035.023-.07.036-.1.038-.1.078-.207.122-.309,1.228-2.865,4.632-4.587,9.105-4.606h0a21.367,21.367,0,0,1,6.452,1.023,25.208,25.208,0,0,1,2.447.9,21.357,21.357,0,0,1,8.892,6.75c2.054,2.844,2.617,5.734,1.586,8.14-.036.086-.076.17-.116.253-.008.016-.017.032-.024.047-.037.074-.074.146-.113.218l-.01.017c-1.155,2.1-3.516,3.491-6.725,3.929l-.107.012q-.23.031-.467.054l-.191.016c-.128.011-.257.021-.388.028-.063,0-.125.009-.188.011-.163.008-.328.014-.493.017l-.255,0h-.1l-.151,0c-.126,0-.252,0-.378-.006h-.05q-.462-.015-.93-.053l-.13-.01c-.136-.011-.273-.026-.41-.04l-.206-.023c-.13-.014-.26-.031-.391-.049-.077-.01-.155-.022-.234-.034-.126-.019-.252-.037-.378-.058s-.258-.046-.387-.07c-.156-.028-.313-.06-.47-.091-.115-.024-.231-.048-.347-.074-.1-.021-.194-.044-.291-.067l-.372-.091-.265-.068q-.234-.062-.467-.13l-.171-.049q-.318-.093-.635-.2l-.181-.061c-.158-.053-.316-.107-.473-.162l-.217-.078q-.229-.085-.459-.173l-.2-.076c-.215-.085-.429-.172-.643-.264q-.222-.1-.443-.2l-.146-.067q-.148-.067-.294-.137l-.169-.082-.265-.129-.178-.09-.251-.129-.181-.1-.243-.131-.181-.1c-.079-.044-.158-.088-.237-.134l-.179-.1q-.117-.068-.233-.137l-.175-.106-.231-.143-.171-.107-.23-.149-.164-.108c-.078-.051-.154-.1-.231-.157l-.155-.106-.236-.167-.142-.1c-.085-.062-.169-.125-.253-.188-.039-.029-.078-.057-.116-.087-.112-.084-.223-.171-.333-.257l-.029-.022q-.18-.142-.355-.288l-.088-.073c-.077-.065-.156-.13-.232-.2l-.172.114-.2.134q-.242.158-.486.312l-.161.1q-.32.2-.643.389l-.128.074q-.262.152-.525.3l-.208.113c-.158.086-.317.171-.476.253l-.193.1q-.328.168-.658.326l-.035.016c-.172.082-.346.163-.519.242a30.87,30.87,0,0,0,8.723,5.577,27.977,27.977,0,0,0,15.81,2.164c4.749-.879,8.177-3.257,9.65-6.7C165.062,136.242,158.657,126.569,147.7,121.874Zm0,0" transform="translate(-107.872 -106.714)" fill="#ed7e9e"/>
    </g>
  </g>
</svg>
