<svg xmlns="http://www.w3.org/2000/svg" width="118.823" height="83.979" viewBox="0 0 118.823 83.979">
  <g id="story-bird" transform="translate(0 -75.082)">
    <g id="Group_58" data-name="Group 58" transform="translate(0 75.082)">
      <g id="Group_57" data-name="Group 57" transform="translate(0 0)">
        <path id="Path_3" data-name="Path 3" d="M216.129,125.776c0-6.166-4.749-11.181-10.586-11.181a10.232,10.232,0,0,0-6.692,2.517,10.232,10.232,0,0,0-6.692-2.517c-5.838,0-10.587,5.016-10.587,11.181a15.416,15.416,0,0,0,2.01,6.965,1.74,1.74,0,0,0,3.07-1.641,11.957,11.957,0,0,1-1.6-5.323c0-4.246,3.188-7.7,7.106-7.7a6.886,6.886,0,0,1,5.34,2.624,1.74,1.74,0,0,0,2.7,0,6.886,6.886,0,0,1,5.34-2.624c3.918,0,7.105,3.454,7.105,7.7,0,3.517-3.377,10.832-12.44,15.491-.443.227-.9.448-1.358.656-.459-.208-.915-.429-1.358-.656a28.017,28.017,0,0,1-6.478-4.554,1.74,1.74,0,1,0-2.394,2.527,31.5,31.5,0,0,0,7.281,5.123c.6.307,1.212.6,1.831.874a2.771,2.771,0,0,0,2.236,0c.619-.274,1.235-.568,1.831-.874C211.207,139.527,216.129,131.352,216.129,125.776Z" transform="translate(-139.438 -105.426)" fill="#ed7e9e"/>
        <path id="Path_4" data-name="Path 4" d="M323.454,202.862a1.74,1.74,0,0,0-1.7-1.6l-10.2-.2a9.685,9.685,0,0,0,1.179-8.783,1.741,1.741,0,0,0-2.081-1.059l-9.164,2.485a1.74,1.74,0,1,0,.911,3.359l7.4-2.006a6.083,6.083,0,0,1-3.228,5.917,19.875,19.875,0,0,0-17.333,10.376l-2.027,3.7a23.084,23.084,0,0,0-1.937-2.481l.4-1.8a16.506,16.506,0,0,1,9.612-11.61,1.74,1.74,0,0,0-1.368-3.2,19.993,19.993,0,0,0-11.625,13.985,8.953,8.953,0,0,0-4.281-1.594c-4.618-.341-8.4,2.28-9.19,6.371a7.959,7.959,0,0,0,.359,4.274l-1.619.679a1.741,1.741,0,1,0,1.348,3.21l2.186-.918a7.917,7.917,0,0,0,1.206.983,18.4,18.4,0,0,0,26.473,18.177l10.735,6.506a3.927,3.927,0,0,0,4.931-.7,17.656,17.656,0,0,0,4.323-11.839,3.931,3.931,0,0,0-4.007-3.989l-9.945.2a3.918,3.918,0,0,0-.988-.841l-.253-.151a11.333,11.333,0,0,0,4.4-3.05,6.875,6.875,0,0,0,1.525-3.071c3.327-1.078,5.662-2.871,6.949-5.34a10.4,10.4,0,0,0,.92-6.459,9.589,9.589,0,0,0,6.088-9.528Zm-8.631,31.72a.436.436,0,0,1,.323.13.445.445,0,0,1,.134.329,16.585,16.585,0,0,1-.662,4.5l-5.2-2.344a1.74,1.74,0,1,0-1.43,3.173l5.245,2.363a11.748,11.748,0,0,1-1.367,1.854.439.439,0,0,1-.552.07l-9.25-5.606a18.271,18.271,0,0,0,2.768-2.708,3.953,3.953,0,0,0,.788-1.578Zm.06-25.044a1.748,1.748,0,0,0-1.218,2.293,7.459,7.459,0,0,1-.32,5.438c-.966,1.828-2.957,3.139-5.917,3.9a1.741,1.741,0,0,0-1.291,1.938,3.083,3.083,0,0,1-.83,1.918c-1.106,1.317-4.306,3.564-13.314,3.82a1.74,1.74,0,0,0,.048,3.48h.05a43.871,43.871,0,0,0,6.9-.688l3.047,1.818a.428.428,0,0,1,.208.3.462.462,0,0,1-.1.378,15.017,15.017,0,0,1-19.159,3.309,14.861,14.861,0,0,1-7.093-15.172,1.74,1.74,0,0,0-1.022-1.868,4.561,4.561,0,0,1-2.632-5.015c.521-2.688,3.225-3.729,5.517-3.562,2.72.2,5.664,3.426,7.542,6.738l-5.433,9.932a1.74,1.74,0,0,0,3.054,1.671l9.377-17.14a16.436,16.436,0,0,1,14.774-8.565l12.792.249a6.135,6.135,0,0,1-4.975,4.832Z" transform="translate(-204.654 -164.224)" fill="#ed7e9e"/>
        <path id="Path_5" data-name="Path 5" d="M307.015,289.326l-.022,0a1.731,1.731,0,0,0-2.029,1.379,1.746,1.746,0,1,0,2.051-1.375Z" transform="translate(-234.173 -239.583)" fill="#ed7e9e"/>
        <path id="Path_6" data-name="Path 6" d="M193.822,292.788a1.74,1.74,0,0,0,.335-.033l.022,0a1.731,1.731,0,0,0,1.364-2.039,1.746,1.746,0,1,0-1.721,2.076Z" transform="translate(-147.511 -239.596)" fill="#ed7e9e"/>
        <path id="Path_7" data-name="Path 7" d="M55.918,219.675,54.3,219a7.961,7.961,0,0,0,.359-4.274c-.793-4.092-4.572-6.712-9.19-6.371a8.929,8.929,0,0,0-4.285,1.577,19.894,19.894,0,0,0-14.246-14.881L12.824,191.22a1.74,1.74,0,0,0-2.081,1.059,9.684,9.684,0,0,0,1.179,8.783l-10.2.2a1.74,1.74,0,0,0-1.7,1.6,9.59,9.59,0,0,0,6.088,9.528,10.4,10.4,0,0,0,.92,6.459c1.287,2.469,3.621,4.262,6.949,5.34a6.878,6.878,0,0,0,1.525,3.071,11.336,11.336,0,0,0,4.4,3.05l-.253.151a3.913,3.913,0,0,0-.988.841l-9.946-.2a3.931,3.931,0,0,0-4.007,3.989,17.655,17.655,0,0,0,4.323,11.839,3.927,3.927,0,0,0,4.93.7l10.722-6.5a18.363,18.363,0,0,0,14.709.684,1.74,1.74,0,1,0-1.243-3.251,14.89,14.89,0,0,1-16.824-4.44.463.463,0,0,1-.1-.378.429.429,0,0,1,.208-.3l3.047-1.818a43.9,43.9,0,0,0,6.9.688h.05a1.74,1.74,0,0,0,.048-3.48c-8.827-.251-12.065-2.425-13.209-3.7a3.11,3.11,0,0,1-.93-2.064,1.643,1.643,0,0,0-1.3-1.912c-2.96-.757-4.951-2.068-5.917-3.9a7.457,7.457,0,0,1-.323-5.429,1.74,1.74,0,0,0-1.215-2.3,6.125,6.125,0,0,1-4.975-4.831l12.793-.249a16.433,16.433,0,0,1,14.774,8.565l9.377,17.14a1.74,1.74,0,1,0,3.054-1.671l-5.433-9.932c1.731-3.052,4.663-6.526,7.542-6.738,2.293-.171,5,.874,5.517,3.562a4.561,4.561,0,0,1-2.632,5.015,1.74,1.74,0,0,0-1.022,1.868,15.05,15.05,0,0,1-3.746,12.45,1.74,1.74,0,1,0,2.563,2.355,18.574,18.574,0,0,0,4.773-14.121,7.939,7.939,0,0,0,1.208-.984l2.186.918a1.74,1.74,0,0,0,1.348-3.209ZM21.41,239.054l-9.244,5.6a.438.438,0,0,1-.552-.07,11.753,11.753,0,0,1-1.367-1.854l5.245-2.363a1.74,1.74,0,1,0-1.43-3.173l-5.2,2.344a16.6,16.6,0,0,1-.662-4.5.446.446,0,0,1,.134-.329.424.424,0,0,1,.323-.13l9.206.184a3.952,3.952,0,0,0,.788,1.577A18.394,18.394,0,0,0,21.41,239.054Zm12.829-27.7a19.888,19.888,0,0,0-17.333-10.375,6.084,6.084,0,0,1-3.229-5.917l12.349,3.348a16.425,16.425,0,0,1,11.78,12.363l.4,1.8a23.893,23.893,0,0,0-1.934,2.489Z" transform="translate(0 -164.224)" fill="#ed7e9e"/>
        <path id="Path_8" data-name="Path 8" d="M169.128,99.065a1.74,1.74,0,0,0,2.469-2.454l-1.817-1.828a1.74,1.74,0,0,0-2.469,2.454Z" transform="translate(-128.098 -89.818)" fill="#ed7e9e"/>
        <path id="Path_9" data-name="Path 9" d="M148.776,125.814l2.527.634a1.74,1.74,0,1,0,.847-3.376l-2.527-.634a1.74,1.74,0,1,0-.847,3.376Z" transform="translate(-113.242 -111.409)" fill="#ed7e9e"/>
        <path id="Path_10" data-name="Path 10" d="M195.7,79.768a1.74,1.74,0,1,0,3.381-.827l-.619-2.532a1.74,1.74,0,0,0-3.381.827Z" transform="translate(-149.771 -75.082)" fill="#ed7e9e"/>
        <path id="Path_11" data-name="Path 11" d="M324.176,99.579a1.734,1.734,0,0,0,1.234-.514l1.817-1.828a1.74,1.74,0,0,0-2.469-2.454l-1.817,1.828a1.74,1.74,0,0,0,1.234,2.967Z" transform="translate(-247.615 -89.818)" fill="#ed7e9e"/>
        <path id="Path_12" data-name="Path 12" d="M338.768,125.182a1.737,1.737,0,0,0,2.111,1.264l2.527-.634a1.74,1.74,0,1,0-.847-3.376l-2.527.634a1.74,1.74,0,0,0-1.265,2.112Z" transform="translate(-260.118 -111.407)" fill="#ed7e9e"/>
        <path id="Path_13" data-name="Path 13" d="M300.7,81.045a1.738,1.738,0,0,0,2.1-1.277l.619-2.532a1.74,1.74,0,1,0-3.381-.827l-.619,2.532A1.74,1.74,0,0,0,300.7,81.045Z" transform="translate(-229.904 -75.082)" fill="#ed7e9e"/>
      </g>
    </g>
  </g>
</svg>
