<svg id="user" xmlns="http://www.w3.org/2000/svg" width="23.782" height="28.506" viewBox="0 0 23.782 28.506">
  <path id="Path_909" data-name="Path 909" d="M93.9,13.731a6.643,6.643,0,0,0,4.855-2.011,6.643,6.643,0,0,0,2.011-4.854,6.644,6.644,0,0,0-2.011-4.854,6.864,6.864,0,0,0-9.709,0,6.643,6.643,0,0,0-2.011,4.854,6.643,6.643,0,0,0,2.012,4.855A6.645,6.645,0,0,0,93.9,13.731Zm0,0" transform="translate(-82.186)" fill="#ed7e9e"/>
  <path id="Path_910" data-name="Path 910" d="M23.725,255.466a16.959,16.959,0,0,0-.231-1.8,14.191,14.191,0,0,0-.443-1.811,8.945,8.945,0,0,0-.744-1.689,6.374,6.374,0,0,0-1.123-1.463,4.95,4.95,0,0,0-1.613-1.013,5.573,5.573,0,0,0-2.059-.373,2.09,2.09,0,0,0-1.116.473c-.334.218-.726.47-1.162.749a6.66,6.66,0,0,1-1.5.663,5.84,5.84,0,0,1-3.679,0,6.645,6.645,0,0,1-1.5-.662c-.433-.276-.824-.529-1.164-.75a2.087,2.087,0,0,0-1.115-.473,5.566,5.566,0,0,0-2.058.373A4.946,4.946,0,0,0,2.6,248.7a6.374,6.374,0,0,0-1.122,1.463,8.963,8.963,0,0,0-.744,1.689,14.225,14.225,0,0,0-.443,1.811,16.9,16.9,0,0,0-.231,1.8C.019,256.013,0,256.579,0,257.15a4.733,4.733,0,0,0,1.406,3.581,5.061,5.061,0,0,0,3.623,1.321H18.754a5.06,5.06,0,0,0,3.622-1.321,4.731,4.731,0,0,0,1.406-3.581C23.782,256.576,23.763,256.009,23.725,255.466Zm0,0" transform="translate(0 -233.547)" fill="#ed7e9e"/>
</svg>
