<svg xmlns="http://www.w3.org/2000/svg" width="100" height="100" viewBox="0 0 100 100">
  <g id="video-play-btn" transform="translate(-919.705 -2957.705)">
    <g id="Ellipse_19" data-name="Ellipse 19" transform="translate(919.705 2957.705)" fill="#fff" stroke="#707070" stroke-width="1" opacity="0.41">
      <circle cx="50" cy="50" r="50" stroke="none"/>
      <circle cx="50" cy="50" r="49.5" fill="none"/>
    </g>
    <g id="Group_221" data-name="Group 221" transform="translate(920 2957.999)">
      <path id="Path_508" data-name="Path 508" d="M49.7,99.409A49.705,49.705,0,0,1,14.558,14.557,49.673,49.673,0,0,1,90.988,77.3a3.883,3.883,0,1,1-6.456-4.316A41.66,41.66,0,1,0,71.4,85.6a3.883,3.883,0,1,1,4.024,6.642A49.624,49.624,0,0,1,49.7,99.409Zm-4.221-31.4L64.841,56.8a8.2,8.2,0,0,0,0-14.186L45.483,31.4A8.184,8.184,0,0,0,33.2,38.489v22.43a8.165,8.165,0,0,0,12.282,7.093Zm-3.893-29.9L60.948,49.331a.434.434,0,0,1,0,.746L41.59,61.292a.372.372,0,0,1-.41,0,.39.39,0,0,1-.213-.373V38.489a.39.39,0,0,1,.213-.373.412.412,0,0,1,.208-.061.391.391,0,0,1,.2.061Zm0,0" transform="translate(0.001 0.001)" fill="#ed7e9e"/>
    </g>
  </g>
</svg>
