<svg id="video" xmlns="http://www.w3.org/2000/svg" width="50" height="50" viewBox="0 0 50 50">
  <g id="Group_147" data-name="Group 147">
    <g id="object_3_">
      <g id="Group_145" data-name="Group 145">
        <path id="Path_31" data-name="Path 31" d="M40.7,0H9.3A9.31,9.31,0,0,0,0,9.3V40.7A9.31,9.31,0,0,0,9.3,50H40.7A9.31,9.31,0,0,0,50,40.7V9.3A9.31,9.31,0,0,0,40.7,0Zm5.847,9.3v3.015H37.8l-6.54-8.862H40.7A5.854,5.854,0,0,1,46.548,9.3ZM26.975,3.452l6.54,8.862H23.025l-6.54-8.862ZM3.452,9.3A5.854,5.854,0,0,1,9.3,3.452h2.9l6.54,8.862H3.452ZM40.7,46.548H9.3A5.854,5.854,0,0,1,3.452,40.7V15.765h43.1V40.7A5.854,5.854,0,0,1,40.7,46.548Z" fill="#ed7e9e"/>
      </g>
      <g id="Group_146" data-name="Group 146" transform="translate(17.891 21.441)">
        <path id="Path_32" data-name="Path 32" d="M200.336,228.826l-13.762-7.945a1.74,1.74,0,0,0-2.609,1.507v15.891a1.74,1.74,0,0,0,2.609,1.506l13.762-7.946a1.74,1.74,0,0,0,0-3.013Zm-12.892,6.439V225.4l8.544,4.933Z" transform="translate(-183.965 -220.647)" fill="#ed7e9e"/>
      </g>
    </g>
  </g>
</svg>
