<svg xmlns="http://www.w3.org/2000/svg" width="80" height="80" viewBox="0 0 80 80">
  <g id="wedding-circle" transform="translate(-920 -3300.5)">
    <g id="Ellipse_5" data-name="Ellipse 5" transform="translate(920 3300.5)" fill="#fff" stroke="#ed7e9e" stroke-width="2">
      <circle cx="40" cy="40" r="40" stroke="none"/>
      <circle cx="40" cy="40" r="39" fill="none"/>
    </g>
    <g id="Group_211" data-name="Group 211" transform="translate(937 3317.5)">
      <g id="XMLID_504_">
        <g id="Group_210" data-name="Group 210">
          <g id="Group_209" data-name="Group 209">
            <path id="Path_56" data-name="Path 56" d="M62.851,191.452q.064-.059.127-.121a5.227,5.227,0,0,0,1.574-3.755v-2.685A4.9,4.9,0,0,0,59.661,180H56.881a2.865,2.865,0,0,0-2.861,2.861v4.644a5.355,5.355,0,0,0,1.351,3.556,3.913,3.913,0,0,0-1.757,1.129l-3.589,3.491c-.019.018-.037.037-.054.057a1.177,1.177,0,0,1-1.772,0,.977.977,0,0,0-.085-.086L44.248,192.2a2.935,2.935,0,0,0-1.95-.945A7.363,7.363,0,0,0,43.052,188v-2.272a5.138,5.138,0,0,0-5.138-5.139h-.108a5.282,5.282,0,0,0-5.287,5.266,7.9,7.9,0,0,1-2.981,6.2l-.818.655a1.514,1.514,0,0,0,.946,2.7h2.023a9.215,9.215,0,0,0-.4,1.072l-2.63,8.66a3.628,3.628,0,0,0,.5,3.165,2.437,2.437,0,0,0,1.948,1.038H43.392a2.436,2.436,0,0,0,1.948-1.038,3.628,3.628,0,0,0,.5-3.165l-2.375-7.821a.978.978,0,1,0-1.872.569l2.375,7.821a1.682,1.682,0,0,1-.2,1.431.535.535,0,0,1-.377.247H31.108a.535.535,0,0,1-.377-.247,1.681,1.681,0,0,1-.2-1.431l2.63-8.66a6.838,6.838,0,0,1,.736-1.641h1.744a7.387,7.387,0,0,0,5.27-2.206h1.171a.978.978,0,0,1,.736.334.99.99,0,0,0,.085.086l3.866,3.45a3.134,3.134,0,0,0,4.645-.017L55,193.568c.019-.018.037-.037.054-.057a1.957,1.957,0,0,1,1.472-.668h4.293a1.957,1.957,0,0,1,1.94,2.207l-.578,4.971-2.719,1.359-2.561-1.28-.369-3.1a.978.978,0,1,0-1.943.231l1.239,10.4a1.96,1.96,0,0,0,1.941,1.714h3.553a1.961,1.961,0,0,0,1.942-1.722l1.436-12.341a3.913,3.913,0,0,0-1.856-3.832ZM41.1,188a5.46,5.46,0,0,1-5.453,5.453h-.179a9.512,9.512,0,0,0,3.029-4.292.978.978,0,0,0-1.846-.648,7.288,7.288,0,0,1-5.621,4.854,9.847,9.847,0,0,0,3.451-7.512,3.324,3.324,0,0,1,3.33-3.31h.108a3.182,3.182,0,0,1,3.182,3.182Zm21.5-.427h0a3.31,3.31,0,0,1-3.367,3.309,3.361,3.361,0,0,1-3.252-3.38v-.272a7.264,7.264,0,0,0,3.748,1.027.978.978,0,0,0,0-1.957,5.223,5.223,0,0,1-3.006-.923,1.8,1.8,0,0,1-.741-1.468v-1.052a.906.906,0,0,1,.9-.9h2.779a2.938,2.938,0,0,1,2.935,2.935v2.685Zm-1.267,19.815-3.553.006-.592-4.971,1.846.923a.978.978,0,0,0,.875,0l2.011-1.005Z" transform="translate(-25.395 -162.391)" fill="#ed7e9e"/>
            <path id="Path_57" data-name="Path 57" d="M33.862,0A13.064,13.064,0,0,0,23.478,5.135,13.085,13.085,0,0,0,0,13.133a12.105,12.105,0,0,0,3.067,8.061.978.978,0,1,0,1.461-1.3,10.151,10.151,0,0,1-2.571-6.76A11.169,11.169,0,0,1,13.094,1.957a11.053,11.053,0,0,1,9.546,5.418.978.978,0,0,0,1.677,0,11.053,11.053,0,0,1,9.546-5.418A11.169,11.169,0,0,1,45,13.133a10.151,10.151,0,0,1-2.571,6.76.978.978,0,0,0,1.461,1.3,12.105,12.105,0,0,0,3.067-8.061A13.128,13.128,0,0,0,33.862,0Z" fill="#ed7e9e"/>
          </g>
        </g>
      </g>
    </g>
  </g>
</svg>
